<svg width="20.6" height="25" version="1.1" viewBox="0 0 20.625 25.004" xmlns="http://www.w3.org/2000/svg" preserveAspectRatio="none">
 <path d="m20.615 16.182h-3.4713c-0.74081 0-0.74081-0.89908-0.95095-1.7423l-1.4231 4.7481c-0.2128 0.68628-1.1638 0.63308-1.322-0.0532l-2.9526-14.364-2.8462 19.684c-0.1064 0.73948-1.1611 0.79401-1.3207 0.05453l-1.8487-8.1396h-4.4289v-1.3832c2.9127 0.01729 5.1205 0.05187 5.2801 0.12236 0.58121 0.26334 1.318 4.6417 1.5295 5.4929l2.8462-19.95c0.1596-0.79268 1.2143-0.79268 1.3699-0.05453l3.1654 15.561 1.3699-4.5885c0.21147-0.68628 1.1624-0.68628 1.3207 0.05187l0.73948 3.1654h2.9393z" fill="#f00" />
</svg>
