<svg width="31.728" height="30.251" version="1.1" viewBox="0 0 31.729 30.283" xmlns="http://www.w3.org/2000/svg">
 <path d="m16.05-0.066479c-3.977 0.066503-7.9265 1.7161-10.68 4.589l0.017597-0.00978c-2.7 2.7396-4.2718 6.5426-4.2957 10.386 0.3099-0.057193 0.60783-0.15054 0.91507-0.21704 0.058522-0.38839 0.062557-0.78408 0.095808-1.1751 0.34581-2.833 1.5042-5.5858 3.406-7.7273 1.0108-1.1572 2.1933-2.1689 3.5234-2.927 0.47352-0.31389 1.0048-0.51367 1.5037-0.77038 2.1148-0.92306 4.4564-1.3467 6.7574-1.1751 1.8355 0.13701 3.6577 0.64855 5.3203 1.4625 2.3941 1.1837 4.4149 3.0866 5.8248 5.3477 0.32852 0.022611 0.65006-0.13379 0.96395-0.2229-0.33384-0.61182-0.75232-1.1712-1.1673-1.7285-1.862-2.4074-4.4816-4.2048-7.3811-5.1345-1.1572-0.35512-2.3665-0.57481-3.5781-0.67457-0.40697-0.013301-0.81763 0.011118-1.2259-0.023464zm2.1547 2.1938c-0.10237 0.71698-0.24172 1.4383-0.28156 2.1645 0.16227 0.00931 0.32326 0.020644 0.48686 0.031284 0.11172-0.70493 0.20409-1.4158 0.29721-2.1273-0.16625-0.031921-0.33492-0.055135-0.5025-0.068434zm-4.2645 0.22094c-0.26868 0.035911-0.53127 0.099456-0.78798 0.17793 0.07286 0.7289 0.14116 1.4513 0.23659 2.1723 0.17025-0.035912 0.34008-0.069128 0.51033-0.099719-0.0013-0.15429-0.0027-0.30591 0-0.45753 0.04256 0.00266 0.1295 0.00712 0.17207 0.00978 0.06251 0.10774 0.12128 0.21747 0.18379 0.32653 0.16493-0.033251 0.32976-0.068969 0.49468-0.10754-0.26202-0.67832-0.55411-1.3395-0.80948-2.0217zm3.2614 0.00782c-0.15512-0.020782-0.32516 0.0019-0.45948 0.03715v0.00391c-0.26868 0.054532-0.27873 0.36587-0.32261 0.58267 0.14098 0.015961 0.30356 0.11038 0.4419 0.03324 0.06384-0.13434 0.10705-0.27752 0.16424-0.41452 0.08118 0.11039 0.1372 0.24561 0.08799 0.38128-0.18488 0.23276-0.6489 0.19908-0.69412 0.54357-0.02394 0.21414-0.07025 0.55152 0.18379 0.64329 0.32852-0.00399 0.66022-0.024419 0.98742 0.023464 0.0093-0.53872 0.05618-1.0798-0.01565-1.6092-0.07781-0.13832-0.21834-0.20407-0.37346-0.22486zm-1.4176 0.15447c-0.07831-0.020117-0.17005-0.011624-0.23854 0.015642v0.00587c-0.25803 0.098424-0.53495 0.048018-0.80361 0.058658 0.02926 0.60122 0.11283 1.1964 0.17402 1.795 0.1636-0.01197 0.32585-0.023144 0.49077-0.039105-0.01596-0.51602-0.1134-1.0183-0.1134-1.529 0.04522 0.00266 0.1392 0.00712 0.18575 0.00978 0.07714 0.48547 0.08875 0.98411 0.1486 1.4762 0.1636-0.01197 0.32655-0.02651 0.48882-0.03715-0.01995-0.53072-0.05822-1.0715-0.17793-1.5956-0.01064-0.090443-0.07616-0.14021-0.15447-0.16034zm3.2203 0.1486v0.00587c-0.02926 0.46951-0.04262 0.94728-0.06257 1.4235 0.0266 0.23409-0.20496 0.35447-0.32066 0.52205 0.2567 0.071823 0.54871 0.2109 0.81339 0.093853 0.14763-0.12636 0.20129-0.31982 0.27178-0.49273 0.15961-0.43492 0.35089-0.8611 0.46927-1.3119-0.14896-0.026601-0.30012-0.048483-0.44776-0.068434-0.10774 0.3764-0.21792 0.75531-0.36955 1.1184 0.0027-0.41364 0.06239-0.82405 0.07039-1.2377-0.14232-0.019951-0.28464-0.036831-0.4243-0.052792zm-5.334 0.22877c0.1463 0.28596 0.26974 0.58733 0.30698 0.9092-0.05586 0.00266-0.16446 0.00907-0.21899 0.011732-0.0266-0.30857-0.07999-0.61236-0.08799-0.92093zm7.3088 0.21704c-0.07359-0.00599-0.14654-0.00248-0.21704 0.00782-0.22877 0.089114-0.29795 0.38988-0.29524 0.612 0.08246 0.26202 0.3006 0.45596 0.4243 0.69804-0.07448 0.082464-0.15225 0.16265-0.23072 0.24246-0.01995-0.14763-0.02915-0.29684-0.03715-0.4458-0.12769-0.035911-0.2536-0.067798-0.38128-0.099719-0.0266 0.15961-0.08346 0.32201-0.04888 0.48295 0.13434 0.25404 0.44313 0.33591 0.70781 0.35586 0.28596 0.00665 0.4153-0.3022 0.4419-0.54162 0.01197-0.37242-0.45857-0.55876-0.4067-0.94048 0.06916-0.01197 0.14067-0.023224 0.21117-0.035195 8e-3 0.11039 6.93e-4 0.22208 0.03128 0.32848 0.1237 0.053202 0.25484 0.080234 0.38519 0.1095 0.01729-0.15827 0.08615-0.33673-0.0176-0.47905-0.12669-0.18255-0.34626-0.27729-0.56703-0.29524zm-9.7334 0.12905c-0.1596 0.045222-0.30435 0.12643-0.43603 0.22486 0.05187 0.13965 0.1058 0.27948 0.16034 0.41648-0.2434 0.022611-0.5862 0.097885-0.53965 0.41843 0.14098 0.41893 0.36188 0.81294 0.58267 1.1947 0.08645 0.18487 0.33023 0.1829 0.47122 0.064524 0.20882-0.1636 0.46363-0.24532 0.71367-0.33044-0.025267-0.12103-0.054179-0.24484-0.11536-0.35391-0.28596-0.54263-0.55754-1.0906-0.83686-1.6346zm11.067 0.025419c-0.03059 0.049212-0.08806 0.14889-0.11732 0.19944 0.15827 0.10641 0.32842 0.21258 0.52792 0.20726 0.0053-0.049212 0.01676-0.14631 0.02347-0.19552-0.14498-0.070493-0.29043-0.14067-0.43407-0.21117zm-5.2264 0.00391c0.01199 0.20749 0.0074 0.415-0.0059 0.61982-0.04655-0.00532-0.14436-0.016188-0.19357-0.021508-0.02527-0.22345 0.02121-0.44669 0.19944-0.59832zm-4.7064 0.19553c-0.28995 0.045222-0.40323 0.4171-0.25028 0.64719 0.15296 0.29261 0.66836 0.24045 0.75082-0.084076 0.11837-0.30458-0.18134-0.65755-0.50055-0.56312zm9.6825 0.13296v0.00587c-0.26468 0.52537-0.54066 1.0529-0.78406 1.5956 0.13965 0.081133 0.27908 0.16853 0.43603 0.21508 0.089118-0.073157 0.13255-0.18572 0.18575-0.28548 0.20482-0.44424 0.4552-0.86688 0.63742-1.3218-0.15694-0.074483-0.31553-0.14404-0.47513-0.20921zm-11.145 0.47318c0.23276 0.063842 0.3218 0.29667 0.4282 0.48686 0.11572 0.2168 0.22336 0.44158 0.26591 0.6863-0.094434-0.043892-0.20442-0.076141-0.24832-0.17989-0.17956-0.31523-0.366-0.6355-0.4458-0.99328zm12.075 0.19162c-0.21015 0.054532-0.31368 0.2725-0.36955 0.46535-0.0532 0.33252 0.35044 0.59163 0.19749 0.9268-0.05719 0.010641-0.17095 0.034957-0.22681 0.046927 0.02527-0.13434 0.05286-0.26846 0.08212-0.40278-0.12503-0.058522-0.25038-0.11433-0.37541-0.1662-0.07182 0.17424-0.19963 0.37105-0.0919 0.55725 0.19685 0.3498 0.82324 0.57711 1.0481 0.13687 0.26069-0.32054-0.06604-0.67305-0.18576-0.97763 0.01995-0.046552 0.0628-0.13857 0.08407-0.18379 0.04124-0.013301 0.12302-0.040822 0.16424-0.052792-0.0066 0.12103-0.01814 0.24069-0.02346 0.36173l0.34608 0.19944c0.059853-0.137 0.17318-0.27971 0.11732-0.43798-0.11172-0.30325-0.44592-0.51042-0.76646-0.47318zm-13.098 0.025419c-0.060102 0.036535-0.051197 0.17067-0.082121 0.24049-0.21813-0.071823-0.40148 0.069877-0.56507 0.19357 0.31656 0.5001 0.65482 0.98811 0.99132 1.4762 0.15694-0.077143 0.30209-0.17922 0.41648-0.31089-0.19552-0.27799-0.37911-0.56122-0.55334-0.8525 0.035909-0.12636 0.11278-0.24499 0.11145-0.37933-0.058524-0.13301-0.1409-0.25391-0.23268-0.36563-0.03957-0.015296-0.065999-0.014134-0.086033-0.0019521zm-1.1145 1.007c-0.38044 0.0031835-0.80042 0.44897-0.61787 0.82903 0.046552 0.099755 0.10643 0.19494 0.16229 0.28938 0.13301-0.095764 0.26212-0.198 0.38715-0.30306-0.077143-0.14098-0.15319-0.28252-0.21704-0.43016 0.13965 0.051872 0.30603 0.11147 0.35391 0.27374-0.047883 0.23409-0.183 0.43977-0.2229 0.67652 0.082464 0.21015 0.23995 0.42615 0.4634 0.49664 0.23409 0.062513 0.32375-0.1897 0.4634-0.31871 0.14365-0.11837 0.30208-0.21934 0.44971-0.3324-0.26335-0.36311-0.56668-0.69683-0.87791-1.0187-0.094766-0.11638-0.21732-0.16335-0.34413-0.16229zm7.2971 0.82903 0.01173 0.00195c-1.6892 0.053205-3.3903 0.55598-4.8002 1.5017-0.81133 0.55862-1.5761 1.204-2.1547 2.01-0.83128 1.0641-1.4102 2.3277-1.6776 3.6563 0.40168-0.06384 0.7919-0.18563 1.1829-0.28938 0.15827-0.41897 0.28869-0.84837 0.48686-1.2514 0.57193-1.197 1.451-2.2789 2.5536-3.0463 1.4498-1.0508 3.2584-1.5697 5.0407-1.4899 1.8089 0.1197 3.5776 0.85223 4.9077 2.0746 0.11705 0.086454 0.22355 0.24466 0.38714 0.19944 0.37109-0.050543 0.7367-0.14714 1.0852-0.28547-0.62513-0.7302-1.3882-1.3373-2.2075-1.836-1.4498-0.86321-3.14-1.2695-4.8158-1.2455zm-7.082 0.041061c0.15961 0.10374 0.28895 0.24475 0.40865 0.39105-0.026601 0.039902-0.076403 0.12043-0.10167 0.16034-0.15694-0.1503-0.3123-0.3173-0.30698-0.55139zm-1.31 0.023463c-0.2434 0.1636-0.42884 0.38879-0.62569 0.60027 0.054532 0.078473 0.10838 0.15616 0.16424 0.23464 0.11705-0.069163 0.23107-0.14318 0.34413-0.21899 0.25537 0.41231 0.35119 0.94147 0.74887 1.2514 0.22877-0.19818 0.43165-0.4228 0.61787-0.66089-0.059852-0.071823-0.11745-0.14326-0.17597-0.21508-0.11837 0.081133-0.23553 0.16844-0.35391 0.25223-0.23542-0.41631-0.35776-0.90838-0.71954-1.2436zm-0.84076 1.1262c-0.32786-0.018748-0.59347 0.36342-0.62374 0.67066-0.034582 0.23276 0.17335 0.38529 0.30503 0.54357 0.1237-0.11305 0.22365-0.24491 0.31676-0.38323-0.099755-0.12503-0.20121-0.24811-0.27569-0.3891 0.12901 0.035911 0.28122 0.06018 0.36368 0.17989 0.050543 0.27665-0.10233 0.56623-0.00391 0.8349 0.17689 0.17823 0.42701 0.29832 0.68239 0.24246 0.16758-0.29527 0.3874-0.55738 0.57094-0.84468-0.39502-0.27665-0.76647-0.58916-1.1908-0.81926-0.04888-0.02045-0.097852-0.032517-0.14469-0.035195zm0.31676 0.80753c0.17556 0.098424 0.39196 0.17723 0.47708 0.37541-0.071823 0.15827-0.21849 0.014256-0.30893-0.046926-0.10641-0.077143-0.12559-0.21543-0.16815-0.32848zm-1.7714 0.26396c-0.078473 0.16493-0.15257 0.33092-0.21508 0.5025 0.21414 0.10906 0.43861 0.20447 0.63547 0.34413-0.0066473 0.046552-0.021348 0.1392-0.029329 0.18575-0.24739-0.12236-0.48756-0.25681-0.74691-0.35391-0.083794 0.15429-0.15883 0.31466-0.20139 0.48491 0.64641 0.32587 1.2645 0.6894 1.9162 0.99132 0.079804-0.15562 0.15632-0.31161 0.22681-0.47122-0.28064-0.14896-0.56186-0.29878-0.82121-0.481 0.034582-0.026601 0.099082-0.077653 0.131-0.10559 0.28463 0.10108 0.52892 0.2805 0.80558 0.39888 0.082464-0.1503 0.16453-0.30332 0.24832-0.45362-0.63444-0.36842-1.2898-0.70167-1.9416-1.0421h-0.00782zm24.601 0.017597c-0.29644-0.00365-0.59857 0.049523-0.87988 0.11536l-0.0039 0.00391c-1.0108 0.24872-2.0178 0.53205-3.0326 0.78211 0.03591 0.35512 0.15467 0.68861 0.24246 1.0304 0.44291 1.6493 0.86533 3.2975 1.3002 4.9468 0.6504-0.11172 1.2798-0.30896 1.9142-0.47122-0.17025-0.73152-0.40618-1.4576-0.56312-2.1958 0.74483-0.25271 1.5833-0.31782 2.1938-0.8525 0.49079-0.40567 0.68072-1.1126 0.53575-1.7285-0.11173-0.54665-0.35632-1.1158-0.85642-1.4097-0.26202-0.15761-0.55411-0.21729-0.85054-0.22094zm-0.59636 1.5056c0.40567 0.14232 0.59264 0.74532 0.25614 1.0539-0.29794 0.22079-0.67452 0.31893-1.0363 0.37346-0.12236-0.41099-0.22873-0.82725-0.32848-1.2436 0.3538-0.11838 0.73224-0.22236 1.1086-0.18379zm-6.1611 0.046926c-0.44459 0.026957-0.88894 0.13721-1.3041 0.29134h-0.01173c-0.6637 0.25404-1.3152 0.68395-1.6092 1.357-0.45886 0.95764-0.30085 2.068 0.07822 3.0189 0.31921 0.80069 0.99103 1.4784 1.8223 1.7285 0.78473 0.16892 1.5997 0.05031 2.3405-0.21704 0.38306-0.13301 0.76018-0.32181 1.0421-0.62374 0.55198-0.51872 0.71814-1.3105 0.69021-2.0354-0.58655-0.05453-1.179-0.02612-1.7695-0.0567 4e-3 0.38438-0.02157 0.80132-0.27961 1.1125-0.33385 0.36444-0.92046 0.51448-1.3687 0.27374-0.36045-0.20482-0.5508-0.60053-0.67849-0.9796-0.13699-0.4469-0.26437-0.91881-0.21117-1.3843 0.07981-0.72356 0.96411-1.1941 1.6092-0.86423 0.22345 0.09843 0.33389 0.36256 0.55334 0.45167 0.52405-0.21148 1.0119-0.5014 1.5173-0.75278-0.30458-0.54798-0.80685-0.99813-1.396-1.2122-0.18953-0.05686-0.38463-0.090726-0.58072-0.10559-0.14706-0.011144-0.29564-0.010941-0.44385-0.00195zm-5.8267 1.705c-0.93104-0.07182-1.8851 0.19629-2.6591 0.71367l2e-3 -0.0078c-0.64906 0.43892-1.0259 1.2085-1.0539 1.9827-0.05852 0.83794 0.17059 1.678 0.57094 2.4069 0.32454 0.55331 0.84463 0.98006 1.4352 1.2181 0.71823 0.25803 1.514 0.13256 2.2349-0.07625 0.45754-0.15163 0.93176-0.33634 1.2709-0.69412 0.54798-0.51872 0.72651-1.3129 0.70389-2.0471-0.58389 0.0093-1.1629-0.0427-1.7441-0.05865-0.05985 0.40035-0.0393 0.86866-0.35586 1.1693-0.40168 0.37375-1.1154 0.4748-1.529 0.06648-0.32852-0.33252-0.47048-0.80127-0.5729-1.2455-0.07581-0.41897-0.19185-0.88294 0.01565-1.2846 0.21813-0.49612 0.82987-0.75581 1.3433-0.60418 0.28596 0.0931 0.47913 0.3313 0.67066 0.54943 0.51207-0.25803 1.0282-0.5075 1.531-0.78016-0.35912-0.7036-1.0654-1.239-1.8633-1.308zm-6.9119 1.7813c-0.02999-4e-3 -0.06252-3.18e-4 -0.09777 0.01565-0.63444 0.16758-1.2703 0.31207-1.8888 0.51424h-0.00391c-0.23941 2.1813-0.47029 4.3611-0.68044 6.5424 0.64242-0.1237 1.2667-0.31764 1.9025-0.46926 0.039902-0.3538 0.046846-0.71112 0.050837-1.0676 0.69163-0.18089 1.3662-0.36096 2.0471-0.52988 0.20482 0.28064 0.37911 0.58061 0.55334 0.87988 0.67567-0.14232 1.3353-0.3328 1.9963-0.50837-0.21281-0.33651-0.44971-0.65639-0.67848-0.9796-1.0108-1.3965-2.0033-2.8077-2.9916-4.2175-0.05088-0.0808-0.11925-0.16772-0.20921-0.17989zm-4.8061 1.2142c-0.62513 0.16227-1.2633 0.29548-1.8751 0.51228l-0.00782 0.0059c0.16758 0.67832 0.38522 1.3535 0.51424 2.0492-0.64774 0.15695-1.2852 0.38172-1.9435 0.49078-0.17556-0.67833-0.34006-1.3695-0.54357-2.0492-0.61449 0.17557-1.2339 0.3239-1.8497 0.48882 0.029261 0.22478 0.082882 0.44729 0.14274 0.66675 0.46818 1.7556 0.90418 3.5236 1.3843 5.2792 0.64242-0.057193 1.2474-0.30498 1.8751-0.43798-0.15296-0.81133-0.43293-1.5943-0.58854-2.4069 0.64375-0.17823 1.2891-0.36027 1.9435-0.4986 0.21281 0.78473 0.39872 1.5844 0.63547 2.3678 0.62911-0.13699 1.2403-0.31889 1.8614-0.47318-0.029261-0.20084-0.073266-0.39889-0.12514-0.5944-0.47483-1.7956-0.93531-3.6049-1.4235-5.4004zm25.803 0.53379c-0.3099 0.06517-0.61643 0.14466-0.91703 0.24441l0.03324 0.02151c-0.0705 1.0241-0.1769 2.0454-0.4243 3.0443-0.2407 1.0641-0.65109 2.0767-1.1419 3.0463-0.66503 1.2901-1.5131 2.4972-2.5399 3.5254-3.2717 3.4022-8.327 4.9645-12.955 4.0161-2.2345-0.45221-4.3628-1.41-6.1317-2.8332-1.237-0.99755-2.3474-2.1945-3.1773-3.5644-0.075813-0.10641-0.13839-0.23664-0.25809-0.29916-0.29794 0.04655-0.58679 0.14074-0.8701 0.24049 0.65173 1.2236 1.5469 2.3023 2.5126 3.2985 0.95764 0.91774 1.9964 1.7434 3.1656 2.3659 4.203 2.4805 9.697 2.6545 14.099 0.47318 2.2212-1.0108 4.1364-2.6339 5.5862-4.589 1.9286-2.5803 3.0149-5.7716 3.0189-8.9904zm-21.551 0.22486c0.40966 0.58389 0.77729 1.1901 1.1164 1.8086-0.40433 0.0971-0.80074 0.22201-1.2064 0.29916 0.00133-0.70493 0.03674-1.4036 0.089943-2.1019v-0.0059zm17.942 1.3628c-0.12503 0.03326-0.24921 0.07006-0.36759 0.11927h-0.0098c-0.06917 0.12236-0.06405 0.26908-0.08799 0.40474 0.15429 0.07182 0.29283 0.2319 0.47905 0.20531 0.50143-0.06118 0.97746 0.1731 1.4762 0.12122 0.07848-0.19286 0.12513-0.3974 0.15837-0.60222-0.55198 0.13965-1.1562 0.04429-1.6483-0.24832zm-2.7922 0.09972c-0.34315 0.08911-0.69517 0.16405-1.0343 0.27178l-0.0098 0.0098c-0.16625 0.03591-0.18793 0.23005-0.24246 0.36173-0.18222 0.62913-0.46187 1.2239-0.79971 1.7813-1.4365 2.4207-4.2564 3.9288-7.0762 3.8304-1.6758-0.0665-3.3348-0.66829-4.6555-1.7031-0.28995-0.21281-0.5099-0.51465-0.82513-0.69021-0.3897 0.04655-0.76883 0.16506-1.14 0.28743 0.49212 0.64773 1.1232 1.1843 1.795 1.6366 1.9286 1.3141 4.3759 1.8194 6.6635 1.4097 2.7665-0.45222 5.2601-2.3016 6.517-4.8022 0.37907-0.75813 0.69181-1.554 0.80753-2.3932zm2.577 0.93853c-0.27927 0.03059-0.26286 0.32302-0.28547 0.53184h-2e-3c-0.07315 0.1902-0.15836 0.37393-0.19162 0.57876 0.57592 0.14763 1.1315 0.37921 1.7167 0.48295 0.0399-0.15827 0.07749-0.31686 0.1134-0.47513-0.30325-0.08912-0.60204-0.19057-0.9053-0.27569-0.2035-0.05984-0.42957-0.10584-0.55725-0.28938 0.53469-0.03458 1.0116 0.26471 1.529 0.35781 0.05188-0.15961 0.1033-0.31943 0.15251-0.47905-0.52002-0.13434-1.0274-0.36961-1.5701-0.43212zm-0.84076 1.2142c-0.26069 0.01064-0.28896 0.28298-0.37541 0.47318 0.05453 0.03192 0.1625 0.09971 0.21704 0.13296 0.0931-0.19153 0.20227-0.38534 0.15837-0.60614zm0.15056 0.18184c-0.06119 0.15429-0.12457 0.30583-0.18575 0.46145 0.53202 0.26601 1.0859 0.47991 1.6366 0.69804 0.0399-0.16625 0.24086-0.34407 0.12514-0.51033-0.51472-0.22478-1.0327-0.4656-1.5701-0.64915h-0.0059zm0.05279 0.93071c-0.10106-0.01791-0.20478-0.01624-0.31284 0.01368-0.36976 0.15694-0.5853 0.75448-0.22486 1.0284 0.31256 0.2168 0.6509 0.41574 1.0206 0.51815 0.52272 0.0066 0.83929-0.84481 0.35781-1.1321-0.26335-0.14763-0.53758-0.37446-0.84076-0.42821zm-0.3891 0.41061c0.33252 0.0665 0.61925 0.25413 0.9092 0.42038 0.11172 0.05852 0.19668 0.15115 0.26983 0.25223-0.27 0.0133-0.49085-0.15341-0.71563-0.27178-0.17823-0.10508-0.39291-0.18803-0.4634-0.40083zm-0.87205 0.58267c-0.38172 0.09577-0.56468 0.49536-0.78016 0.78798 0.27665 0.24074 0.56951 0.45989 0.8701 0.6687 0.29926 0.20749 0.56918 0.45912 0.88574 0.64132 0.10508-0.1463 0.20989-0.29284 0.30698-0.4458-0.22478-0.16492-0.45316-0.32569-0.67261-0.4986 0.06517-0.22478 0.30689-0.49554 0.11536-0.71367-0.19685-0.20084-0.44077-0.40004-0.72541-0.43993zm-0.16424 0.45558c0.26069-0.0027 0.52683 0.15319 0.51619 0.4458-0.21813-0.08379-0.45634-0.19576-0.51619-0.4458zm-17.617 0.29134c-0.059889 0.0017-0.12261 0.01129-0.18379 0.03324-0.30857 0.16227-0.54809 0.42374-0.81144 0.64719-0.18089 0.17689-0.43048 0.36132-0.41452 0.64329 0.053202 0.34316 0.33446 0.65039 0.68826 0.6863 0.26601 0.01197 0.452-0.20337 0.63155-0.36563-0.11305-0.12503-0.22326-0.25038-0.33631-0.37541-0.16227 0.12636-0.33428 0.24196-0.53379 0.29916 0.019951-0.26468 0.25451-0.40938 0.43407-0.56898 0.25537-0.20749 0.47784-0.47494 0.79971-0.58267-0.022611 0.24606-0.23349 0.39812-0.3891 0.56703 0.095764 0.13832 0.20315 0.27049 0.31089 0.40083 0.19685-0.13832 0.41551-0.29109 0.49664-0.53183 0.086121-0.4178-0.27294-0.86455-0.69217-0.8525zm17.472 0.86228c-0.11572-0.01463-0.23851 0.0068-0.33826 0.0567-0.26468 0.24207-0.14366 0.7991 0.26201 0.76451 0.34847 0.04389 0.53447-0.3883 0.36955-0.65697-0.06917-0.09909-0.17758-0.14961-0.29329-0.16424zm-1.4235 0.14077c-0.14704 0.09978-0.28243 0.22331-0.37541 0.37736 0.48414 0.52005 0.94805 1.0647 1.4508 1.5701 0.13034-0.10906 0.26079-0.22254 0.38714-0.33826-0.46153-0.55596-0.96245-1.0838-1.4625-1.6092zm-15.222 0.24049c-0.30458 0.36178-0.63621 0.70026-0.95808 1.046-0.077143 0.0931-0.18496 0.17992-0.19162 0.30893 0.10508 0.12103 0.23732 0.21192 0.36368 0.30503 0.21946-0.23542 0.41099-0.49758 0.65306-0.71172 0.12236-0.13434 0.29817 0.0052 0.4458-0.02933 0.13832-0.11172 0.24085-0.25734 0.35391-0.39301-0.10641-0.01862-0.21293-0.03363-0.32066-0.04692 0.01862-0.23276-0.17716-0.362-0.34608-0.47905zm1.0109 0.39301c-0.010641 0.05453-0.03042 0.16383-0.041061 0.21704 0.1237 0.09975 0.2471 0.19878 0.37346 0.29721 0.03326-0.05453 0.10291-0.16641 0.13882-0.22094-0.14896-0.11039-0.30496-0.21348-0.47122-0.29329zm-0.18966 0.33435c-0.37774 0.45886-0.73561 0.92694-1.0735 1.4097 0.137 0.10374 0.27541 0.20409 0.42038 0.29721 0.36178-0.47616 0.7565-0.92442 1.0598-1.4352-0.12901-0.098428-0.26571-0.19065-0.4067-0.27178zm14.074 0.05084c-0.05841-0.01033-0.12091-6e-3 -0.18575 0.01565-0.31123 0.08113-0.67117 0.34595-0.54748 0.71172 0.17025 0.3804 0.42191 0.73751 0.73714 1.0128 0.41764 0.16625 1.0129-0.25253 0.87596-0.72736-0.10774-0.25404-0.2894-0.46943-0.45167-0.69021-0.10774-0.13965-0.25295-0.29163-0.4282-0.32261zm-13.203 0.26201c-0.12503 0.11039-0.33575 0.16574-0.36368 0.35195v-0.0059c-0.11172 0.50143-0.61942 0.83425-0.63937 1.357 0.11439 0.16758 0.30528 0.26112 0.48882 0.33826-0.00133-0.45355 0.26802-0.82336 0.52205-1.1732 0.06783-0.08912 0.17868-0.12793 0.27178-0.18379 0.01064-0.16094 0.03464-0.32014 0.06257-0.47708-0.11439-0.06783-0.23045-0.13809-0.34218-0.20726zm12.836 0.09385c0.26335 0.03325 0.38162 0.27915 0.52792 0.46535 0.13434 0.1902 0.2943 0.37838 0.30893 0.62177-0.37774-0.26335-0.62937-0.68147-0.83686-1.0871zm-12.109 0.24441c-0.0013 0.0532-0.0039 0.15539-0.0039 0.20726 0.15296 0.0931 0.32029 0.16362 0.5025 0.16229 8e-3 -0.28064-0.28312-0.33497-0.4986-0.36955zm11.402 0.08212c-0.17795-0.029-0.13154 0.19998-0.17597 0.31284-0.06384-0.05586-0.12777-0.11166-0.19162-0.1662-0.12103 0.07714-0.24327 0.15163-0.36564 0.22877 0.27 0.51739 0.57914 1.0059 0.85446 1.5154 0.17291-0.03325 0.3289-0.11266 0.47122-0.21508-0.16758-0.3099-0.34486-0.61353-0.50446-0.92876 0.05188-0.1237 0.10713-0.2439 0.16034-0.36759-0.08113-0.12768-0.15521-0.25962-0.24832-0.37933zm-11.525 0.2229c-0.29677 0.51934-0.59338 1.0349-0.83099 1.5779 0.14647 0.08174 0.29738 0.1621 0.45167 0.23464 0.26202-0.53202 0.57594-1.0384 0.81534-1.5837-0.14498-0.07581-0.29105-0.15163-0.43603-0.22877zm-0.83099 1.5779c-0.0013-7.03e-4 -0.0027-0.0013-0.0039-2e-3v0.0078c9.33e-4 -0.0021 3e-3 -0.0037 0.0039-0.0059zm11.123-1.445c-0.137 0.0532-0.27104 0.10581-0.4067 0.16034 0.03591 0.17424-0.0034 0.38506 0.13491 0.52205 0.28463 0.30325 0.37057 0.72755 0.58072 1.0774 0.14232 0.27931 0.51018 0.1039 0.71367-0.0078 0.02926-0.18487-0.24751-0.22903-0.32066-0.37933-0.17556-0.34316-0.40155-0.69132-0.36563-1.093-0.09975-0.10774-0.22459-0.1865-0.33631-0.27961zm-9.2875 0.4067c-0.19818-0.0013-0.38372 0.08131-0.45753 0.28547-0.13034 0.26069-0.23969 0.53401-0.31284 0.81731-0.03058 0.13301-0.06878 0.2902 0.01368 0.41256 0.17291 0.25537 0.52486 0.32069 0.80948 0.25419 0.22744-0.04655 0.27464-0.30339 0.35978-0.48295-0.12901-0.04123-0.26071-0.08203-0.39105-0.11927-0.09576 0.14365-0.19109 0.29099-0.34804 0.37346 0.0066-0.46419 0.24174-0.90696 0.50642-1.2807 0.0266 0.1596 0.02104 0.32006 0.01173 0.481 0.1197 0.05453 0.24006 0.10838 0.35978 0.16424 0.09443-0.21547 0.16994-0.49477-0.0176-0.6863-0.12436-0.13234-0.33561-0.21766-0.53379-0.21899zm8.5211 0.19749c-0.3804 0.06384-0.72105 0.25362-1.1028 0.3148v0.01369c0.14098 0.5666 0.35759 1.1144 0.53184 1.6756 0.16892-0.03059 0.33445-0.07693 0.49273-0.14077-0.14232-0.49744-0.36945-0.96682-0.43993-1.4762 0.09843 0.0133 0.20029 0.0526 0.2229 0.16034 0.15561 0.40168 0.27361 0.81568 0.41061 1.224 0.16227-0.03325 0.3246-0.0696 0.48686-0.1095-0.16493-0.56927-0.31627-1.146-0.60222-1.662zm-6.0242 0.15447c-0.07208 0.72875-0.21805 1.4312-0.3148 2.1469 0.17291 0.02261 0.34587 0.04075 0.5201 0.0567 0.10508-0.70493 0.23633-1.4228 0.3148-2.1411-0.17158-0.03326-0.34454-0.06124-0.5201-0.06257zm2.6006 0.09777c-0.16459-1.66e-4 -0.3322 0.04354-0.47318 0.11536v-0.0078c-0.23941 0.18089-0.22259 0.51735-0.2053 0.78602 0.0399 0.37907 0.0056 0.78081 0.15056 1.14 0.23144 0.29661 0.70638 0.2641 1.007 0.09385 0.24606-0.18089 0.16322-0.52986 0.18184-0.79189-0.15562 0.01064-0.31107 0.02385-0.46535 0.03715-0.04389 0.20217-3.15e-4 0.465-0.21312 0.58072-0.14896-0.50276-0.12106-1.0433-0.12905-1.5701 0.0532-0.0027 0.15601-0.0091 0.20921-0.01173 0.02262 0.1862 0.0452 0.37495 0.06648 0.56117 0.16493 0.0093 0.32843 0.01681 0.49468 0.02347-0.0093-0.27266 0.02799-0.59393-0.1662-0.81339-0.13168-0.09909-0.29294-0.14257-0.45753-0.14274zm-3.6231 0.03715c-0.08614-0.0029-0.17081 0.0049-0.25028 0.02151-0.23542 0.05187-0.26808 0.3292-0.32262 0.52205v0.0078c0.13832 0.03857 0.28003 0.07507 0.42234 0.10167 0.06384-0.13301 0.13144-0.2679 0.20726-0.39692 0.10108 0.13034 0.06962 0.28643 0.04302 0.43407-0.2035 0.05453-0.41053 0.09641-0.61005 0.16424-0.28463 0.07448-0.28015 0.44884-0.28547 0.68826 0.09177 0.2168 0.33702 0.19372 0.52988 0.21899 0.18887 0.04921 0.3723 0.11902 0.56117 0.16424 0.11837-0.52404 0.327-1.0354 0.33631-1.5701-0.10973-0.2434-0.37313-0.347-0.63155-0.35586zm5.2363 0.17402c-0.07749-2.89e-4 -0.15341 0.01188-0.2229 0.03715-0.16892 0.05188-0.38308 0.15299-0.39105 0.35781-0.02926 0.41099 0.04922 0.82851 0.19552 1.2142 0.05986 0.22877 0.34804 0.23542 0.54357 0.22877 0.21813-0.04123 0.51485-0.10353 0.54943-0.36955 0.05187-0.37242-0.05612-0.74952-0.15056-1.1086-0.05387-0.2414-0.29152-0.35889-0.52402-0.35978zm-0.02737 0.27374c0.15827 0.40035 0.21303 0.83616 0.25028 1.2631-0.28064-0.0266-0.22937-0.37926-0.29721-0.57876-0.01064-0.22212-0.1885-0.5274 0.04692-0.68434zm-2.9036 0.21704c-0.07089-0.01561-0.14683-0.0132-0.21899 0.01173-0.30458 0.07981-0.36384 0.55492-0.12709 0.73714 0.22079 0.19818 0.66198 0.05126 0.67262-0.26396 0.05986-0.23144-0.11386-0.43808-0.32653-0.48491zm-2.2955 0.29721c-0.01596 0.22079-0.08427 0.43362-0.20531 0.61982-0.22079-0.20482-0.05938-0.55199 0.20531-0.61982z" fill="#5cb14e"/>
</svg>
