<svg width="45" height="44.9" version="1.1" viewBox="0 0 44.9856 44.920532" xmlns="http://www.w3.org/2000/svg">
 <defs>
  <clipPath id="clipPath18">
   <path d="m0 33.7h33.7v-33.7h-33.7z"/>
  </clipPath>
 </defs>
 <g transform="matrix(1.33 0 0 -1.33 0 44.9)">
  <g clip-path="url(#clipPath18)">
   <g transform="translate(12.4 27.1)">
    <path d="m0 0c2.16 0.934 4.61 1.15 6.9 0.638 1.45-0.326 2.84-0.948 4.05-1.82 2.23-1.59 3.85-4.03 4.41-6.72l0.018 2e-3c0.014-0.14 0.041-0.278 0.066-0.416 0.148-0.816 0.192-1.65 0.158-2.48-0.054-1.18-0.294-2.34-0.713-3.44-0.343-0.898-0.8-1.75-1.36-2.53-0.826-1.15-1.87-2.15-3.07-2.91-1.68-1.08-3.66-1.69-5.66-1.75-1.83-0.063-3.68 0.332-5.32 1.15-1.27 0.625-2.42 1.5-3.36 2.55-0.632 0.703-1.18 1.49-1.61 2.33-0.546 1.05-0.92 2.18-1.11 3.35-0.238 1.47-0.179 2.99 0.173 4.44l2e-3 0.015c0.189 0.766 0.458 1.51 0.803 2.22 1.16 2.39 3.19 4.33 5.63 5.38m-7.68-20.4c0.662-0.789 1.4-1.51 2.21-2.16 2.19-1.76 4.86-2.92 7.65-3.32 2.74-0.394 5.58-0.059 8.15 0.978 2.09 0.837 3.99 2.13 5.54 3.76 0.464 0.485 0.897 1 1.3 1.54 0.349 0.474 0.673 0.966 0.968 1.48 0.639 1.11 1.14 2.29 1.5 3.52 0.854 2.96 0.818 6.17-0.107 9.1l-4e-3 0.013c-0.874 2.79-2.55 5.32-4.76 7.23-2.05 1.77-4.57 3.01-7.23 3.53-2.55 0.508-5.22 0.38-7.7-0.375-2.57-0.778-4.94-2.23-6.8-4.17-1.56-1.62-2.77-3.57-3.52-5.68-2e-3 -5e-3 -6e-3 -0.017-8e-3 -0.022-1.11-3.12-1.19-6.59-0.241-9.77 0.282-0.95 0.656-1.87 1.11-2.75 0.54-1.04 1.2-2.02 1.95-2.91m1.45-2.89c-0.793 0.646-1.53 1.37-2.19 2.14-0.759 0.892-1.43 1.86-1.98 2.89-0.488 0.896-0.892 1.84-1.21 2.81-1.2 3.68-1.09 7.77 0.334 11.4l0.024-0.035c-2e-3 0.027-6e-3 0.082-8e-3 0.109l0.036-1e-3c0.047 0.167 0.126 0.322 0.187 0.484l0.016 3e-3c0.037 0.136 0.105 0.26 0.172 0.383-1e-3 0.015-4e-3 0.045-5e-3 0.059l0.053 5e-3c-4e-3 0.019-0.011 0.056-0.016 0.075l0.036 2e-3c0.074 0.228 0.207 0.43 0.311 0.644l0.015 0.011c0.07 0.157 0.157 0.306 0.245 0.453 0.046 0.086 0.095 0.169 0.145 0.25 0.041 0.068 0.081 0.136 0.122 0.203 0.114 0.193 0.243 0.377 0.366 0.564 0.027 0.04 0.055 0.081 0.081 0.121 0.115 0.178 0.245 0.346 0.364 0.52 0.09 0.124 0.191 0.24 0.281 0.364 0.091 0.123 0.191 0.239 0.284 0.361l9e-3 -8e-3c0.042 0.071 0.096 0.134 0.158 0.189l0.079 0.11c0.113 0.141 0.263 0.25 0.361 0.402 0.307 0.325 0.625 0.64 0.947 0.949 0.039 0.022 0.076 0.048 0.109 0.078 0.124 0.132 0.255 0.258 0.402 0.362 0.045 0.043 0.09 0.086 0.136 0.127 0.037 0.024 0.074 0.05 0.109 0.076 0.055 0.06 0.118 0.113 0.187 0.157 0.241 0.205 0.5 0.389 0.756 0.575 0.203 0.132 0.394 0.282 0.602 0.406 0.231 0.144 0.456 0.299 0.696 0.427 0.12 0.071 0.24 0.141 0.364 0.203 0.345 0.193 0.697 0.384 1.06 0.529l3e-3 0.015c0.116 0.045 0.228 0.101 0.344 0.146 3.97 1.73 8.61 1.83 12.6 0.283 0.065-0.02 0.128-0.043 0.193-0.062l1e-3 -0.02c0.067-0.019 0.134-0.04 0.202-0.059v-0.02c0.195-0.058 0.376-0.154 0.564-0.229l3e-3 -0.013c0.216-0.072 0.412-0.191 0.618-0.287 0.206-0.104 0.413-0.205 0.61-0.324 0.094-0.048 0.186-0.097 0.275-0.155 0.087-0.049 0.173-0.099 0.259-0.151 0.061-0.037 0.121-0.074 0.182-0.111 0.379-0.236 0.751-0.484 1.11-0.752 0.1-0.082 0.207-0.155 0.313-0.229l-5e-3 -0.013c0.074-0.043 0.142-0.097 0.211-0.15l-0.011-0.011c0.076-0.044 0.145-0.098 0.214-0.151l-0.01-0.01c0.09-0.055 0.166-0.13 0.25-0.193l-6e-3 -0.01c0.173-0.112 0.299-0.281 0.467-0.399 0.36-0.348 0.717-0.7 1.06-1.06 0.023-0.039 0.049-0.075 0.079-0.11 0.101-0.093 0.201-0.191 0.276-0.308l9e-3 6e-3c0.049-0.068 0.105-0.132 0.162-0.196 0.049-0.07 0.103-0.136 0.162-0.199 0.097-0.146 0.229-0.266 0.312-0.421l0.014 5e-3c0.295-0.406 0.587-0.815 0.85-1.24 0.04-0.065 0.08-0.131 0.12-0.198 0.041-0.068 0.083-0.137 0.122-0.207 0.066-0.106 0.128-0.215 0.183-0.327 0.162-0.265 0.291-0.547 0.431-0.823 0.054-0.105 0.108-0.21 0.141-0.323l0.014-4e-3c0.048-0.121 0.111-0.236 0.148-0.361l0.015-2e-3c0.099-0.27 0.227-0.529 0.307-0.806l0.017-4e-3c0.028-0.11 0.094-0.214 0.092-0.329l0.026 0.025c0.965-2.78 1.17-5.8 0.621-8.69-0.098-0.495-0.206-0.99-0.355-1.47l-0.017 6e-3 6e-3 -0.031c-0.372-1.35-0.948-2.65-1.66-3.86-0.21-0.358-0.437-0.706-0.671-1.05-0.48-0.688-1.01-1.34-1.58-1.95-1.28-1.36-2.78-2.5-4.42-3.37-1.87-0.988-3.92-1.62-6.02-1.84-3.15-0.348-6.4 0.203-9.25 1.6-1.16 0.568-2.26 1.27-3.26 2.09m15.5 8.46c0.266 0.034 0.556 0.046 0.799-0.087 0.192-0.102 0.317-0.306 0.343-0.521 0.045-0.318-0.021-0.69-0.29-0.895-0.243-0.182-0.564-0.176-0.853-0.156 0 0.553 0 1.11 1e-3 1.66m-7.65 4e-3c0.194 0.022 0.411 0.045 0.586-0.065 0.203-0.142 0.189-0.493-0.02-0.626-0.166-0.112-0.377-0.074-0.566-0.08zm9.08-0.962c0.047 0.364-0.046 0.792-0.374 1-0.396 0.243-0.885 0.186-1.32 0.142-4e-3 -0.37-1e-3 -0.74-2e-3 -1.11 0-0.31 1e-3 -0.621-1e-3 -0.931 0.42-0.033 0.876-0.063 1.26 0.154 0.266 0.151 0.404 0.452 0.446 0.745m-2.14 0.283c-0.266 0-0.533-1e-3 -0.8 0 0 0.22 0 0.439 1e-3 0.658 0.284-2e-3 0.566-1e-3 0.849-1e-3 0 0.074 1e-3 0.148 1e-3 0.222-0.375 1e-3 -0.749 1e-3 -1.12 1e-3 0-0.31-1e-3 -0.619 0-0.929 1e-3 -0.379 0-0.757 0-1.14 0.388 0 0.775-1e-3 1.16 0 1e-3 0.074 2e-3 0.147 3e-3 0.22-0.297 5e-3 -0.593 3e-3 -0.89 1e-3 -5e-3 0.247-4e-3 0.494-2e-3 0.741h0.798c0 0.074 0 0.149 1e-3 0.223m-1.54-0.05c2e-3 0.308-2e-3 0.617 3e-3 0.925-0.096 3e-3 -0.19 7e-3 -0.285 0.01 0.022-0.69 3e-3 -1.38 0.01-2.07 0.09 1e-3 0.182 2e-3 0.273 3e-3 -1e-3 0.378-1e-3 0.755-1e-3 1.13m-0.709 0.024c-0.26-0.011-0.518-3e-3 -0.777-4e-3 -2e-3 0.229-2e-3 0.459 3e-3 0.688 0.278-2e-3 0.557-1e-3 0.836-1e-3v0.223h-1.11v-0.889c1e-3 -0.392 0-0.784 0-1.18h0.275c-1e-3 0.311-1e-3 0.621-1e-3 0.931h0.78c-1e-3 0.077-2e-3 0.152-2e-3 0.228m-1.51 0.017v0.888c-0.091 1e-3 -0.182 1e-3 -0.273 1e-3 0-0.308-1e-3 -0.616 0-0.925 1e-3 -0.38 0-0.76 0-1.14 0.091 0 0.182 1e-3 0.273 1e-3zm-1.12-0.108c1e-3 0.259-3e-3 0.518 4e-3 0.777 0.207-4e-3 0.415-4e-3 0.623-3e-3v0.223h-1.53c0-0.074-1e-3 -0.149 0-0.223 0.208 0 0.418 0 0.627-1e-3v-1.84c0.091-1e-3 0.181-1e-3 0.273-1e-3 0 0.356-1e-3 0.712 0 1.07m-1.3-0.185c-0.048 0.036-0.099 0.07-0.15 0.103 0.115 0.06 0.238 0.125 0.305 0.243 0.154 0.247 0.085 0.63-0.192 0.76-0.311 0.149-0.669 0.089-1 0.055-3e-3 -0.138-4e-3 -0.276-3e-3 -0.415 1e-3 -0.543 0-1.08 0-1.63h0.274v0.893c0.126-3e-3 0.256 7e-3 0.381-0.022 0.129-0.031 0.216-0.147 0.249-0.271 0.056-0.198 0.092-0.4 0.154-0.597 0.094-1e-3 0.186-3e-3 0.281-4e-3 -0.111 0.291-0.113 0.625-0.299 0.884m-2.12 0.302c-0.05 1e-3 -0.101 1e-3 -0.151 1e-3v0.656h0.85c0 0.074 0 0.148 1e-3 0.222-0.375 1e-3 -0.749 1e-3 -1.12 1e-3 0-0.498-1e-3 -0.997 0-1.49v-0.571c0.387 0 0.775-1e-3 1.16 0v0.221c-0.297 4e-3 -0.596-2e-3 -0.893 5e-3 2e-3 0.245 1e-3 0.491 2e-3 0.736h0.798c0 0.074 1e-3 0.148 2e-3 0.221-0.217 1e-3 -0.433 1e-3 -0.649 2e-3m-1.46-0.973c-0.147 0.041-0.295 0.108-0.392 0.23-0.176 0.21-0.211 0.505-0.172 0.769 0.034 0.243 0.179 0.48 0.408 0.581 0.251 0.121 0.543 0.092 0.799 2e-3 0.021 0.074 0.043 0.146 0.064 0.219-0.344 0.114-0.741 0.12-1.06-0.061-0.654-0.364-0.686-1.46-0.04-1.85 0.34-0.174 0.743-0.159 1.1-0.043-0.017 0.07-0.034 0.141-0.051 0.21-0.21-0.064-0.433-0.101-0.651-0.058m1.5 3.45c0.042 3e-3 0.085 6e-3 0.128 7e-3 1e-3 0.541-1e-3 1.08 0 1.62v1.87h-2.75c-1e-3 -0.391-1e-3 -0.782-1e-3 -1.17 0.451-1e-3 0.903 1e-3 1.35 0-0.045-0.247-0.112-0.498-0.269-0.699-0.184-0.25-0.484-0.391-0.787-0.434-0.302-0.041-0.62-0.032-0.907 0.079-0.341 0.133-0.606 0.414-0.762 0.739-0.109 0.237-0.174 0.493-0.205 0.751-0.062 0.571-3e-3 1.18 0.282 1.69 0.19 0.335 0.52 0.594 0.901 0.669 0.39 0.083 0.832 0.044 1.16-0.204 0.254-0.185 0.383-0.488 0.449-0.785 0.485-6e-3 0.967 1e-3 1.45-4e-3 -0.026 0.581-0.267 1.15-0.682 1.56-0.574 0.576-1.42 0.826-2.22 0.773-0.598-0.029-1.19-0.226-1.67-0.589-0.343-0.257-0.616-0.599-0.816-0.976-0.196-0.379-0.319-0.794-0.371-1.22-0.08-0.663-0.02-1.35 0.235-1.97 0.308-0.78 0.966-1.42 1.77-1.67 0.668-0.208 1.43-0.245 2.07 0.067 0.245 0.114 0.446 0.297 0.633 0.487 0.038-0.193 0.078-0.386 0.116-0.58 0.297 0 0.592 2e-3 0.889-4e-3m10.4 0.148c2e-3 0.687-1e-3 1.38 1e-3 2.06 0.502 1e-3 1-2e-3 1.51 1e-3 0.594 0.01 1.2 0.239 1.59 0.699 0.413 0.497 0.514 1.19 0.403 1.82-0.087 0.495-0.37 0.96-0.798 1.23-0.375 0.248-0.83 0.352-1.28 0.354-0.982-2e-3 -1.96 1e-3 -2.95-2e-3 1e-3 -0.904 0-1.81 0-2.71v-3.59c0.505-3e-3 1.01 1e-3 1.52-3e-3zm-2.54 1.02c0 0.769-1e-3 1.54 0 2.31 0 0.945 0 1.89-1e-3 2.84-0.682-2e-3 -1.37 5e-3 -2.05-3e-3 -0.321-1-0.644-2-0.966-3-0.112-0.345-0.222-0.692-0.335-1.04-0.125 0.342-0.236 0.689-0.355 1.03-0.342 1-0.681 2.01-1.03 3.01-0.682 1e-3 -1.36-1e-3 -2.04 1e-3 -6e-3 -0.938-1e-3 -1.88-3e-3 -2.81v-0.101c1e-3 -0.529-1e-3 -1.06 0-1.59 1e-3 -0.601 0-1.2 1e-3 -1.8 0.477-2e-3 0.954 3e-3 1.43-3e-3 8e-3 0.36 2e-3 0.721 4e-3 1.08 2e-3 0.946-7e-3 1.89 8e-3 2.84 0.032-0.103 0.063-0.206 0.098-0.308 0.288-0.799 0.563-1.6 0.846-2.41 0.14-0.4 0.28-0.8 0.42-1.2 0.388 1e-3 0.777-2e-3 1.17 1e-3 0.144 0.429 0.295 0.854 0.441 1.28 0.237 0.685 0.476 1.37 0.711 2.05 0.073 0.21 0.144 0.422 0.223 0.63 4e-3 -0.194 2e-3 -0.389 2e-3 -0.585 1e-3 -1.13-1e-3 -2.25 0-3.38 0.475-5e-3 0.951 1e-3 1.42-2e-3 3e-3 0.387 1e-3 0.774 2e-3 1.16m4.61 3.15c-6e-3 -0.217-0.03-0.454-0.186-0.619-0.196-0.216-0.505-0.254-0.779-0.269-0.368-0.01-0.737-1e-3 -1.11-4e-3v0.414c0 0.418-1e-3 0.837 0 1.26 0.367-2e-3 0.734 8e-3 1.1-4e-3 0.277-0.015 0.59-0.053 0.787-0.272 0.128-0.135 0.163-0.323 0.184-0.501m-3.74-12.5c0.559 0.294 1.12 0.582 1.68 0.875 0.43-0.826 0.862-1.65 1.29-2.48-0.55-0.284-1.1-0.572-1.65-0.855-0.036 0.066-0.073 0.132-0.108 0.198 0.47 0.25 0.944 0.493 1.42 0.738-0.154 0.296-0.308 0.593-0.464 0.889-0.428-0.216-0.851-0.446-1.28-0.662-0.032 0.069-0.065 0.137-0.098 0.205 0.424 0.219 0.849 0.44 1.27 0.662-0.167 0.328-0.34 0.653-0.51 0.979-0.485-0.246-0.966-0.503-1.45-0.751-0.035 0.067-0.069 0.135-0.103 0.202m-11.2 1.04c0.066-0.036 0.134-0.069 0.201-0.103-0.068-0.142-0.142-0.281-0.217-0.419 0.223 0.124 0.483 0.211 0.74 0.153 0.415-0.088 0.829-0.337 0.996-0.743 0.156-0.371 0.076-0.794-0.084-1.15-0.158-0.341-0.38-0.673-0.713-0.86-0.29-0.168-0.654-0.191-0.966-0.073-0.361 0.13-0.707 0.386-0.833 0.762-0.078 0.211-0.063 0.443-0.01 0.658 0.082-0.039 0.162-0.079 0.242-0.121-0.04-0.192-0.035-0.4 0.059-0.577 0.159-0.319 0.506-0.518 0.854-0.551 0.349-0.026 0.668 0.184 0.871 0.454 0.278 0.355 0.493 0.825 0.356 1.28-0.148 0.548-0.84 0.869-1.35 0.612-0.223-0.108-0.372-0.314-0.49-0.524 0.281-0.144 0.561-0.292 0.84-0.439-0.037-0.066-0.074-0.132-0.112-0.198-0.352 0.187-0.706 0.366-1.06 0.555 0.232 0.424 0.449 0.854 0.674 1.28m14.4 1.08c0.259 0.151 0.584 0.18 0.866 0.078 0.371-0.129 0.659-0.416 0.892-0.722 0.217-0.287 0.374-0.644 0.333-1.01-0.036-0.353-0.273-0.65-0.545-0.86-0.243-0.188-0.567-0.303-0.874-0.224-0.179 0.036-0.331 0.141-0.474 0.247 0.07 0.059 0.139 0.118 0.208 0.178 0.195-0.146 0.448-0.251 0.693-0.171 0.352 0.113 0.684 0.404 0.731 0.788 0.044 0.339-0.112 0.667-0.311 0.93-0.215 0.277-0.491 0.532-0.835 0.624-0.514 0.131-1.08-0.295-1.11-0.822-0.011-0.191 0.049-0.378 0.129-0.549-0.072-0.059-0.143-0.119-0.214-0.179-0.114 0.252-0.207 0.53-0.156 0.81 0.061 0.382 0.34 0.694 0.667 0.882m-16.8 0.462c0.574 0.12 1.16-0.263 1.39-0.777 0.178-0.398 0.088-0.87-0.148-1.23-0.268-0.408-0.681-0.761-1.18-0.83-0.594-0.087-1.18 0.344-1.36 0.896-0.131 0.396-0.012 0.829 0.218 1.16 0.255 0.371 0.63 0.685 1.08 0.773m0.041-0.238c-0.179-0.04-0.344-0.128-0.487-0.24-0.314-0.244-0.58-0.582-0.655-0.98-0.119-0.606 0.472-1.22 1.08-1.14 0.336 0.037 0.626 0.243 0.852 0.484 0.207 0.227 0.378 0.505 0.412 0.816 0.077 0.628-0.586 1.21-1.2 1.06m17.9 0.818c0.059 0.067 0.116 0.134 0.173 0.202 0.71-0.606 1.42-1.22 2.13-1.82-0.058-0.068-0.116-0.136-0.174-0.204-0.706 0.61-1.42 1.22-2.12 1.83m0.981 1.28c0.047 0.075 0.094 0.148 0.142 0.222 0.719-0.462 1.44-0.926 2.16-1.39 0.161 0.245 0.32 0.494 0.479 0.742 0.063-0.04 0.128-0.081 0.192-0.121-0.362-0.573-0.735-1.14-1.1-1.71-0.065 0.042-0.129 0.083-0.193 0.124 0.161 0.246 0.318 0.495 0.482 0.738-0.716 0.471-1.44 0.928-2.16 1.39m-21.1 0.662c0.263 0.053 0.545 0.028 0.786-0.094 0.311-0.152 0.538-0.443 0.663-0.761 0.145-0.369 0.077-0.803-0.155-1.12-0.265-0.366-0.666-0.634-1.1-0.742-0.364-0.093-0.773-0.016-1.06 0.224-0.412 0.343-0.643 0.947-0.43 1.46 0.224 0.534 0.75 0.91 1.31 1.03m0.085-0.246c-0.261-0.051-0.504-0.177-0.714-0.338-0.231-0.178-0.43-0.417-0.497-0.707-0.115-0.543 0.301-1.15 0.864-1.2 0.366-0.037 0.722 0.124 1.01 0.338 0.261 0.196 0.491 0.473 0.53 0.807 0.044 0.308-0.101 0.609-0.304 0.831-0.222 0.242-0.573 0.341-0.891 0.273m22.3 2.18c0.168 0.289 0.484 0.48 0.815 0.506 0.437 0.035 0.867-0.113 1.24-0.323 0.361-0.202 0.658-0.571 0.654-0.999-0.011-0.423-0.176-0.871-0.53-1.12-0.232-0.165-0.534-0.192-0.807-0.136 0.032 0.084 0.065 0.168 0.097 0.251 0.213-0.015 0.451-0.016 0.625 0.13 0.22 0.186 0.355 0.47 0.381 0.755 0.026 0.395-0.256 0.733-0.585 0.913-0.349 0.193-0.759 0.325-1.16 0.253-0.549-0.098-0.879-0.789-0.625-1.28 0.083-0.166 0.22-0.298 0.368-0.408-0.034-0.085-0.067-0.171-0.1-0.257-0.218 0.164-0.43 0.361-0.523 0.624-0.137 0.363-0.044 0.771 0.148 1.1m-24 0.779c0.341 0.101 0.73 0.136 1.06-0.028 0.279-0.138 0.457-0.415 0.561-0.699 0.123-0.335 0.237-0.675 0.355-1.01-0.881-0.304-1.76-0.615-2.64-0.918-0.128 0.374-0.267 0.745-0.386 1.12-0.093 0.299-0.086 0.65 0.101 0.913 0.225 0.319 0.589 0.507 0.953 0.621m-0.51-0.533c-0.247-0.174-0.406-0.478-0.353-0.783 0.061-0.351 0.212-0.678 0.32-1.02 0.739 0.256 1.48 0.517 2.21 0.77-0.139 0.364-0.215 0.764-0.451 1.08-0.19 0.261-0.537 0.337-0.842 0.291-0.315-0.047-0.627-0.158-0.888-0.343m25.3 3.31c0.874-0.491 1.75-0.984 2.62-1.48-0.015-0.099-0.028-0.198-0.043-0.296-0.975-0.222-1.95-0.447-2.92-0.671 0.012 0.091 0.025 0.181 0.038 0.27 0.306 0.066 0.611 0.132 0.917 0.197 0.055 0.423 0.122 0.843 0.175 1.26-0.277 0.147-0.551 0.295-0.823 0.449 0.013 0.088 0.026 0.175 0.039 0.264m0.995-0.839c-0.049-0.36-0.102-0.72-0.152-1.08 0.51 0.11 1.02 0.224 1.53 0.336-0.458 0.251-0.915 0.501-1.38 0.745m-27.6 2.7c0.931 8e-3 1.86-0.015 2.79-0.017-5e-3 -0.088-8e-3 -0.176-9e-3 -0.264-0.377-7e-3 -0.753 0.017-1.13 0.011-0.454-7e-3 -0.906 0.023-1.36 5e-3 0.825-0.319 1.66-0.625 2.48-0.934-1e-3 -0.084-1e-3 -0.168-2e-3 -0.253-0.836-0.3-1.68-0.591-2.51-0.9 0.833-8e-3 1.67-0.018 2.5-0.022-1e-3 -0.088-1e-3 -0.176-1e-3 -0.265-0.932 5e-3 -1.86 0.023-2.79 0.021-1e-3 0.137 4e-3 0.273 0.013 0.409 0.825 0.298 1.65 0.591 2.48 0.896-0.822 0.306-1.64 0.615-2.47 0.921-2e-3 0.131-2e-3 0.262 6e-3 0.392m26.5 0.468c0.927 0.077 1.86 0.147 2.78 0.221 0.025-0.418 0.07-0.835 0.092-1.25-5e-3 -0.234-0.042-0.492-0.214-0.664-0.194-0.174-0.479-0.201-0.726-0.16-0.203 0.038-0.341 0.207-0.44 0.374-0.064-0.209-0.265-0.335-0.472-0.367-0.287-0.068-0.616-0.02-0.866-0.203-9e-3 0.101-0.02 0.201-0.031 0.302 0.296 0.131 0.629 0.113 0.938 0.194 0.159 0.04 0.274 0.194 0.273 0.357 9e-3 0.347-0.047 0.693-0.062 1.04-0.424-0.037-0.849-0.067-1.27-0.103-1e-3 0.088-1e-3 0.176-2e-3 0.264m1.5-0.146c0.046-0.374 0.019-0.763 0.131-1.13 0.107-0.329 0.541-0.436 0.816-0.251 0.142 0.1 0.203 0.281 0.201 0.45 3e-3 0.338-0.048 0.675-0.064 1.01-0.361-0.028-0.722-0.056-1.08-0.086m-26.6 2.19c0.681 0.076 1.36 0.153 2.04 0.229-0.024-0.087-0.046-0.175-0.068-0.263-0.311-0.028-0.622-0.06-0.932-0.09-0.037-0.143-0.074-0.286-0.111-0.43-0.071-0.266-0.14-0.534-0.21-0.8 0.254-0.182 0.511-0.361 0.767-0.542-0.022-0.087-0.046-0.175-0.068-0.263-0.809 0.589-1.62 1.18-2.43 1.77 0.025 0.096 0.051 0.193 0.075 0.289 0.31 0.034 0.62 0.07 0.93 0.104m0.335-0.201c-0.361-0.035-0.724-0.074-1.08-0.111 0.418-0.31 0.85-0.598 1.27-0.9 0.066 0.263 0.136 0.524 0.203 0.786 0.025 0.091 0.049 0.183 0.074 0.274-0.156-0.016-0.31-0.031-0.465-0.049m24.1 0.467c0.893 0.262 1.79 0.528 2.68 0.791l0.29-0.978c0.071-0.238 0.113-0.508-4e-3 -0.738-0.129-0.253-0.425-0.371-0.694-0.393-0.254-0.019-0.483 0.138-0.62 0.341-0.211 0.323-0.276 0.71-0.394 1.07-0.395-0.115-0.79-0.233-1.18-0.349-0.024 0.085-0.049 0.169-0.072 0.254m1.47 0.16c0.115-0.348 0.175-0.718 0.368-1.04 0.21-0.272 0.647-0.219 0.86 0.021 0.125 0.147 0.105 0.354 0.078 0.532-0.073 0.267-0.154 0.532-0.232 0.798-0.359-0.105-0.715-0.214-1.07-0.316m-25.2 3.38c0.831-0.427 1.66-0.859 2.49-1.29-0.046-0.088-0.09-0.178-0.133-0.268-0.973-0.105-1.95-0.196-2.92-0.301 0.722-0.383 1.45-0.752 2.18-1.13-0.041-0.077-0.082-0.154-0.124-0.231-0.826 0.433-1.66 0.86-2.48 1.29l0.132 0.264c0.975 0.106 1.95 0.203 2.93 0.307-0.726 0.377-1.45 0.756-2.18 1.13 0.04 0.077 0.081 0.154 0.121 0.232m22.6 0.769c0.321 0.253 0.714 0.46 1.13 0.442 0.358-6e-3 0.693-0.212 0.9-0.499 0.196-0.258 0.337-0.583 0.294-0.913-0.024-0.234-0.15-0.445-0.307-0.615-0.051 0.073-0.102 0.146-0.152 0.219 0.222 0.245 0.277 0.613 0.145 0.915-0.126 0.284-0.364 0.538-0.674 0.609-0.262 0.068-0.536-3e-3 -0.775-0.114-0.278-0.132-0.546-0.31-0.723-0.568-0.173-0.24-0.239-0.559-0.156-0.845 0.118-0.38 0.466-0.705 0.876-0.711 0.253-0.016 0.485 0.104 0.694 0.232-0.177 0.263-0.361 0.521-0.537 0.783 0.06 0.041 0.122 0.082 0.183 0.123 0.226-0.331 0.454-0.659 0.681-0.989-0.394-0.273-0.789-0.544-1.18-0.816-0.044 0.064-0.088 0.128-0.133 0.191 0.133 0.092 0.264 0.186 0.4 0.271-0.279-0.023-0.569 0.051-0.78 0.238-0.294 0.261-0.518 0.639-0.494 1.04 0.028 0.409 0.293 0.761 0.608 1m-20.6 1.74c0.06 0.067 0.119 0.135 0.178 0.202 0.448-0.393 0.901-0.782 1.35-1.18 0.231-0.204 0.43-0.485 0.431-0.804 8e-3 -0.294-0.161-0.556-0.35-0.766-0.186-0.205-0.439-0.376-0.724-0.38-0.303-7e-3 -0.58 0.151-0.802 0.344-0.442 0.383-0.882 0.768-1.32 1.15 0.059 0.069 0.117 0.137 0.176 0.206 0.386-0.34 0.777-0.676 1.16-1.02 0.216-0.186 0.447-0.39 0.741-0.428 0.27-0.031 0.504 0.152 0.663 0.35 0.149 0.179 0.264 0.425 0.183 0.66-0.082 0.263-0.298 0.452-0.5 0.627-0.397 0.343-0.791 0.686-1.19 1.03m17.6-0.607c0.613 0.7 1.23 1.4 1.84 2.1 0.074-0.065 0.149-0.13 0.224-0.194-0.13-0.971-0.277-1.94-0.405-2.91 0.541 0.612 1.08 1.23 1.62 1.84 0.066-0.059 0.133-0.118 0.201-0.177-0.615-0.699-1.23-1.4-1.85-2.1-0.075 0.069-0.151 0.136-0.227 0.203 0.136 0.966 0.282 1.93 0.414 2.9-0.545-0.61-1.08-1.23-1.62-1.84-0.068 0.06-0.134 0.119-0.201 0.178m-16.4 1.66c0.452 0.337 0.9 0.682 1.36 1.02 0.044-0.061 0.088-0.122 0.133-0.183-0.412-0.304-0.816-0.616-1.23-0.92 0.197-0.27 0.403-0.533 0.601-0.802 0.374 0.279 0.745 0.562 1.12 0.841 0.046-0.061 0.091-0.123 0.136-0.184-0.372-0.278-0.743-0.559-1.11-0.837 0.266-0.356 0.536-0.709 0.801-1.06-0.07-0.054-0.142-0.107-0.212-0.161-0.547 0.732-1.1 1.46-1.65 2.19-0.047 0.045 0.035 0.076 0.059 0.104m15.6-1.16c0.494 0.788 0.986 1.58 1.48 2.37 0.075-0.047 0.15-0.094 0.225-0.14-0.494-0.788-0.989-1.58-1.48-2.37-0.075 0.046-0.149 0.093-0.224 0.139m-12.9 2.91c0.09 0.042 0.179 0.086 0.267 0.13 0.734-0.677 1.48-1.34 2.21-2.02-0.082-0.042-0.163-0.082-0.246-0.121-0.22 0.217-0.449 0.426-0.676 0.636-0.378-0.192-0.759-0.379-1.14-0.57 0.034-0.308 0.061-0.616 0.1-0.923-0.082-0.043-0.164-0.084-0.245-0.126-0.092 0.999-0.187 2-0.271 3m0.225-0.148c0.055-0.519 0.116-1.04 0.167-1.56 0.328 0.164 0.655 0.326 0.981 0.49-0.381 0.356-0.764 0.712-1.15 1.07m10.3-1.6c0.368 0.848 0.724 1.7 1.1 2.55 0.307-0.135 0.617-0.267 0.926-0.397 0.265-0.113 0.551-0.254 0.688-0.522 0.119-0.261 0.01-0.565-0.153-0.782-0.128-0.171-0.35-0.221-0.553-0.226 0.118-0.112 0.174-0.275 0.145-0.436-0.041-0.345-0.29-0.643-0.258-1-0.089 0.038-0.181 0.074-0.272 0.109 0.018 0.343 0.216 0.641 0.27 0.976 0.023 0.215-0.167 0.36-0.345 0.43-0.268 0.118-0.537 0.23-0.806 0.347-0.168-0.388-0.331-0.778-0.501-1.16-0.08 0.039-0.158 0.078-0.237 0.117m0.823 1.25c0.249-0.103 0.496-0.212 0.745-0.317 0.176-0.073 0.378-0.132 0.566-0.065 0.259 0.086 0.409 0.398 0.335 0.657-0.063 0.176-0.23 0.283-0.39 0.361-0.273 0.124-0.553 0.234-0.827 0.356-0.15-0.328-0.285-0.662-0.429-0.992m-8.83 1.26c0.19 0.311 0.545 0.477 0.892 0.544 0.313 0.066 0.667 5e-3 0.905-0.219 0.126-0.108 0.21-0.254 0.282-0.402-0.087-0.021-0.175-0.044-0.261-0.065-0.115 0.203-0.278 0.405-0.52 0.451-0.372 0.065-0.81-0.046-1.03-0.373-0.214-0.312-0.203-0.72-0.118-1.07 0.086-0.331 0.232-0.676 0.526-0.876 0.297-0.201 0.704-0.168 1 0.011 0.287 0.172 0.418 0.52 0.407 0.843 0.091 0.023 0.183 0.045 0.273 0.067-5e-3 -0.305-0.065-0.631-0.274-0.867-0.221-0.266-0.565-0.395-0.9-0.428-0.304-0.032-0.619 0.082-0.833 0.299-0.28 0.275-0.413 0.661-0.487 1.04-0.071 0.351-0.058 0.74 0.134 1.05m5.76 0.805c0.088-0.014 0.175-0.03 0.262-0.046-0.099-0.535-0.193-1.07-0.292-1.61-0.041-0.241-0.074-0.5 0.023-0.733 0.083-0.203 0.29-0.319 0.493-0.372 0.191-0.046 0.395-0.072 0.586-0.011 0.158 0.053 0.281 0.18 0.357 0.326 0.098 0.19 0.134 0.403 0.171 0.612 0.089 0.498 0.183 0.996 0.27 1.49 0.088-0.015 0.177-0.031 0.265-0.047-0.106-0.575-0.208-1.15-0.314-1.73-0.054-0.296-0.184-0.6-0.441-0.775-0.242-0.165-0.553-0.163-0.83-0.117-0.284 0.052-0.58 0.174-0.74 0.428-0.176 0.267-0.17 0.606-0.114 0.909 0.102 0.556 0.202 1.11 0.304 1.67m-3 6e-3c0.678 0.026 1.36 0.047 2.03 0.063 4e-3 -0.074 9e-3 -0.148 0.015-0.221-0.298-3e-3 -0.595-0.021-0.893-0.025 0.035-0.855 0.049-1.71 0.085-2.57-0.088-7e-3 -0.177-0.012-0.265-0.015-0.033 0.859-0.048 1.72-0.084 2.58-0.294-0.017-0.587-0.016-0.881-0.032-4e-3 0.074-7e-3 0.148-0.01 0.221" fill="#689951"/>
   </g>
  </g>
 </g>
</svg>
