<svg xmlns="http://www.w3.org/2000/svg"  width="155px" height="175px" viewBox="0 0 155 175" preserveAspectRaio="none">
<path fill-rule="evenodd"  fill="rgb(226, 235, 203)"
 d="M78.029,175.012 C78.029,175.012 -44.830,49.914 17.787,9.003 C53.904,-14.597 77.416,15.604 77.416,15.604 C77.416,15.604 100.928,-14.597 137.044,9.003 C199.660,49.914 78.029,175.012 78.029,175.012 M77.001,38.755 C74.620,35.422 67.832,28.695 64.417,26.088 C61.028,23.500 46.941,13.028 28.653,24.976 C23.137,28.580 20.481,32.833 19.773,39.193 C19.644,40.359 19.580,41.565 19.580,42.804 C19.580,70.385 50.884,115.305 77.951,146.276 C104.621,115.409 135.382,70.703 135.382,43.122 C135.382,41.833 135.316,40.583 135.178,39.372 C134.443,32.924 131.752,28.620 126.179,24.976 C107.892,13.028 97.747,20.422 91.625,25.088 C83.460,31.312 79.722,35.422 77.001,38.755 "/>
</svg>