<svg width="70.4" height="11.4" version="1.1" viewBox="0 0 70.355469 11.421387" xmlns="http://www.w3.org/2000/svg">
 <defs>
  <clipPath id="clipPath18">
   <path d="m0 8.57h52.8v-8.57h-52.8z"/>
  </clipPath>
 </defs>
 <g transform="matrix(1.33 0 0 -1.33 0 11.4)">
  <g clip-path="url(#clipPath18)">
   <g transform="translate(10.7 3.64)">
    <path d="m0 0c0 0.375 0.043 0.705 0.13 0.988s0.201 0.51 0.338 0.678c0.137 0.17 0.303 0.307 0.498 0.412 0.193 0.107 0.383 0.178 0.57 0.213 0.185 0.036 0.384 0.054 0.6 0.054 0.215 0 0.414-0.018 0.601-0.054 0.185-0.035 0.375-0.106 0.569-0.213 0.194-0.105 0.361-0.242 0.501-0.412 0.14-0.168 0.254-0.395 0.34-0.678 0.088-0.283 0.131-0.613 0.131-0.988 0-0.372-0.043-0.701-0.131-0.988-0.086-0.287-0.2-0.514-0.34-0.68s-0.307-0.305-0.501-0.41c-0.194-0.107-0.384-0.178-0.569-0.214-0.187-0.035-0.386-0.054-0.601-0.054-0.216 0-0.415 0.019-0.6 0.054-0.187 0.036-0.377 0.107-0.57 0.214-0.195 0.105-0.361 0.244-0.498 0.41s-0.251 0.393-0.338 0.68-0.13 0.616-0.13 0.988m0.824 7e-3c0-0.344 0.034-0.629 0.102-0.854 0.069-0.226 0.169-0.391 0.302-0.498 0.132-0.105 0.27-0.177 0.41-0.215 0.139-0.038 0.305-0.057 0.498-0.057 0.156 0 0.292 0.011 0.406 0.029 0.113 0.022 0.231 0.064 0.351 0.129 0.122 0.067 0.22 0.157 0.295 0.276 0.077 0.117 0.14 0.276 0.19 0.477 0.051 0.2 0.076 0.438 0.076 0.713 0 0.339-0.034 0.621-0.102 0.847-0.068 0.225-0.17 0.391-0.305 0.497s-0.273 0.177-0.41 0.212c-0.137 0.036-0.304 0.054-0.501 0.054-0.153 0-0.285-0.011-0.4-0.03-0.113-0.02-0.231-0.065-0.354-0.13-0.121-0.068-0.219-0.158-0.295-0.271-0.074-0.115-0.137-0.27-0.188-0.47-0.05-0.197-0.075-0.435-0.075-0.709m3.6-2.3 1.22 1.73-1.19 1.7h1.01l0.685-0.976 0.686 0.976h0.916l-1.15-1.62 1.27-1.81h-1.01l-0.767 1.09-0.775-1.09zm3.42 3.43h0.876l0.768-2.39 0.754 2.39h0.824l-1.26-3.51c-0.183-0.499-0.382-0.834-0.596-1.01-0.215-0.173-0.437-0.259-0.667-0.259-0.171 0-0.344 0.032-0.521 0.095v0.695c0.133-0.055 0.262-0.083 0.389-0.083 0.237 0 0.458 0.277 0.66 0.83zm3.25-1.7c0 0.301 0.04 0.565 0.119 0.79 0.078 0.225 0.171 0.397 0.278 0.515s0.233 0.217 0.38 0.289c0.146 0.075 0.274 0.121 0.384 0.139 0.11 0.017 0.219 0.026 0.329 0.026 0.481 0 0.834-0.109 1.06-0.328 0.227-0.22 0.34-0.486 0.34-0.8v-2.44c0-0.109-0.011-0.213-0.03-0.312-0.021-0.098-0.063-0.208-0.128-0.329-0.065-0.12-0.152-0.223-0.258-0.308-0.107-0.085-0.258-0.158-0.453-0.216-0.194-0.06-0.42-0.09-0.677-0.09-0.364 0-0.693 0.047-0.991 0.138v0.742c0.276-0.092 0.574-0.138 0.897-0.138 0.192 0 0.349 0.014 0.47 0.042 0.12 0.029 0.203 0.075 0.246 0.137 0.045 0.061 0.072 0.113 0.082 0.156 0.012 0.043 0.018 0.103 0.018 0.177v0.184c-0.183-0.036-0.358-0.055-0.521-0.057-0.499 0-0.882 0.145-1.15 0.434-0.267 0.288-0.4 0.704-0.4 1.25m0.825-0.015c0-0.383 0.062-0.645 0.184-0.779 0.124-0.139 0.311-0.207 0.566-0.207 0.167 0 0.332 0.015 0.493 0.047v1.59c0 0.254-0.189 0.381-0.568 0.381h-0.01c-0.22 0-0.385-0.08-0.497-0.239s-0.168-0.423-0.168-0.793m2.36-0.031c0 0.551 0.123 0.989 0.367 1.32 0.244 0.328 0.632 0.493 1.16 0.493 0.502 0 0.882-0.16 1.14-0.479 0.257-0.321 0.387-0.715 0.387-1.18 0-0.192-5e-3 -0.334-0.014-0.426h-2.22c0.024-0.297 0.111-0.497 0.267-0.596 0.156-0.102 0.357-0.152 0.605-0.152 0.403 0 0.791 0.088 1.17 0.265v-0.664c-0.38-0.205-0.81-0.309-1.29-0.309-0.151 0-0.295 0.013-0.429 0.037-0.134 0.026-0.273 0.078-0.417 0.155-0.143 0.078-0.268 0.177-0.371 0.299-0.103 0.12-0.189 0.288-0.255 0.501s-0.1 0.46-0.1 0.74m0.824 0.295h1.38c-0.022 0.235-0.092 0.433-0.209 0.595-0.118 0.161-0.28 0.243-0.485 0.243s-0.366-0.068-0.482-0.199c-0.114-0.132-0.182-0.343-0.206-0.639m2.55-1.97v3.11c0.503 0.25 1.03 0.375 1.57 0.375 0.478 0 0.853-0.125 1.12-0.374 0.269-0.25 0.405-0.599 0.405-1.05v-2.06h-0.825v2.13c0 0.092-7e-3 0.168-0.025 0.23-0.017 0.061-0.051 0.125-0.101 0.192s-0.132 0.118-0.246 0.151c-0.114 0.034-0.26 0.05-0.439 0.05-0.202 0-0.414-0.021-0.638-0.061v-2.69zm3.78 0v4.58h1.71c0.541 0 0.96-0.132 1.26-0.399 0.295-0.267 0.443-0.646 0.443-1.14 0-0.491-0.148-0.87-0.444-1.14-0.295-0.265-0.714-0.397-1.26-0.397h-0.888v-1.51zm0.824 2.25h0.826c0.362 0 0.61 0.065 0.741 0.199 0.132 0.134 0.198 0.331 0.198 0.591 0 0.259-0.066 0.453-0.199 0.585-0.134 0.132-0.38 0.196-0.74 0.196h-0.826zm2.9-2.25v4.73h0.824v-1.36c0.197 0.077 0.426 0.114 0.687 0.114 0.478 0 0.851-0.125 1.12-0.374 0.268-0.25 0.404-0.599 0.404-1.05v-2.06h-0.824v2.13c0 0.092-9e-3 0.168-0.024 0.23-0.015 0.061-0.049 0.125-0.102 0.192s-0.139 0.118-0.258 0.151c-0.12 0.034-0.272 0.05-0.454 0.05-0.214 0-0.398-0.033-0.55-0.101v-2.65zm3.28 1.12c0 0.068 7e-3 0.14 0.021 0.213 0.012 0.073 0.047 0.163 0.105 0.273 0.057 0.11 0.135 0.206 0.234 0.289 0.099 0.084 0.245 0.155 0.438 0.214 0.192 0.06 0.42 0.089 0.684 0.089 0.186 0 0.386-0.015 0.599-0.047 0 0.434-0.242 0.652-0.723 0.652-0.386 0-0.72-0.058-1-0.172v0.68c0.315 0.114 0.666 0.171 1.05 0.171 0.488 0 0.861-0.125 1.12-0.374 0.258-0.25 0.388-0.61 0.388-1.08v-0.927c0-0.316-0.118-0.586-0.352-0.813-0.237-0.227-0.598-0.342-1.08-0.342-0.505 0-0.877 0.116-1.12 0.343-0.24 0.228-0.359 0.505-0.359 0.832m0.824 0.103c0-0.367 0.214-0.549 0.644-0.549h7e-3c0.408 0 0.613 0.173 0.613 0.52v0.432c-0.191 0.026-0.355 0.041-0.49 0.043-0.514 0-0.772-0.149-0.774-0.446m2.48-1.22v3.12c0.056 0.026 0.133 0.058 0.23 0.095 0.099 0.036 0.297 0.088 0.595 0.156 0.296 0.067 0.592 0.103 0.885 0.107v-0.708c-0.345-4e-3 -0.64-0.042-0.886-0.114v-2.66zm2.01 0v3.1c0.508 0.256 1.01 0.385 1.5 0.385h0.013c0.373 0 0.682-0.085 0.931-0.254 0.426 0.169 0.837 0.254 1.23 0.254 0.463 0 0.824-0.126 1.08-0.378 0.256-0.251 0.386-0.599 0.386-1.04v-2.06h-0.824v2.11c0 0.218-0.055 0.384-0.165 0.495-0.109 0.112-0.314 0.167-0.614 0.167-0.236 0-0.47-0.026-0.699-0.08 0.098-0.109 0.146-0.322 0.146-0.639v-2.06h-0.824v2.13c0 0.209-0.054 0.366-0.163 0.471-0.108 0.105-0.31 0.157-0.608 0.157-0.195 0-0.385-0.017-0.568-0.052v-2.71zm5.45 1.12c0 0.068 7e-3 0.14 0.02 0.213s0.048 0.163 0.106 0.273c0.057 0.11 0.135 0.206 0.234 0.289 0.099 0.084 0.244 0.155 0.438 0.214 0.192 0.06 0.42 0.089 0.682 0.089 0.187 0 0.387-0.015 0.6-0.047 0 0.434-0.241 0.652-0.723 0.652-0.385 0-0.719-0.058-1-0.172v0.68c0.316 0.114 0.666 0.171 1.05 0.171 0.488 0 0.861-0.125 1.12-0.374 0.259-0.25 0.388-0.61 0.388-1.08v-0.927c0-0.316-0.117-0.586-0.352-0.813-0.236-0.227-0.598-0.342-1.08-0.342-0.505 0-0.876 0.116-1.12 0.343-0.239 0.228-0.358 0.505-0.358 0.832m0.824 0.103c0-0.367 0.214-0.549 0.643-0.549h7e-3c0.409 0 0.614 0.173 0.614 0.52v0.432c-0.192 0.026-0.356 0.041-0.49 0.043-0.515 0-0.772-0.149-0.774-0.446" fill="#231f20"/>
   </g>
   <g transform="translate(5.32 4.34)">
    <path d="m0 0c0.089 0.259 0.102 0.562 0.022 0.868-0.03 0.098-0.068 0.193-0.11 0.282-0.216 0.065-0.441 0.083-0.665 0.047-0.022-4e-3 -0.044-8e-3 -0.066-0.012-0.021-2e-3 -0.043-5e-3 -0.064-8e-3 -0.26-0.041-0.492-0.15-0.686-0.306-0.236-0.234-0.363-0.561-0.379-0.909-0.027 0.137-0.036 0.276-0.03 0.417-0.23-0.421-0.347-0.918-0.222-1.48 0.111-0.223 0.11-0.239 0.344-0.517-0.089 0.42-0.243 1.26 1.14 2.14-0.429-0.331-1.18-0.98-0.97-2.01 0.135-0.018 0.43-3e-3 0.567 0.018 0.185 0.03 0.353 0.095 0.504 0.186-0.11-0.015-0.221-0.017-0.332-5e-3 0.342 0.078 0.649 0.287 0.866 0.615-0.102-0.065-0.21-0.113-0.323-0.141 0.262 0.17 0.46 0.462 0.533 0.838 1e-3 6e-3 1e-3 0.013 3e-3 0.019 5e-3 0.066 6e-3 0.134 4e-3 0.201-0.035-0.087-0.079-0.17-0.131-0.241" fill="#65983b"/>
   </g>
   <g transform="translate(6.69 7.83)">
    <path d="m0 0c0.561-0.396 1.02-0.896 1.36-1.51 0.346-0.613 0.517-1.29 0.517-2.04 0-0.598-0.114-1.16-0.342-1.68-0.228-0.517-0.535-0.969-0.923-1.36-0.386-0.389-0.842-0.693-1.36-0.916-0.524-0.225-1.07-0.336-1.66-0.336-0.448 0-0.875 0.064-1.28 0.194v1.99c0.186-0.118 0.387-0.21 0.603-0.276 0.215-0.065 0.44-0.099 0.675-0.099h7e-3c0.319 0 0.624 0.062 0.912 0.184 0.289 0.124 0.543 0.291 0.76 0.508 0.219 0.215 0.394 0.467 0.522 0.756 0.131 0.29 0.195 0.602 0.195 0.941 0 0.417-0.095 0.794-0.287 1.14-0.191 0.341-0.448 0.62-0.772 0.841-0.186 0.127-0.392 0.227-0.618 0.3-0.189 0.063-0.388 0.099-0.596 0.109h-1e-3l-0.01 1e-3h-0.019l-4e-3 1e-3h-0.046l-7e-3 1e-3h-0.06l-0.013-1e-3h-0.032l-0.012-1e-3h-0.019l-0.01-1e-3h-5e-3c-0.284-0.014-0.552-0.073-0.805-0.182-0.288-0.122-0.542-0.292-0.758-0.507-0.22-0.215-0.39-0.469-0.515-0.761-0.125-0.29-0.188-0.603-0.188-0.936v-3.47c-0.228 0.154-0.44 0.326-0.635 0.522-0.392 0.386-0.699 0.838-0.924 1.36-0.224 0.521-0.336 1.08-0.336 1.68 0 0.606 0.116 1.17 0.343 1.69 0.228 0.517 0.537 0.969 0.93 1.36 0.393 0.389 0.848 0.689 1.36 0.911 0.518 0.22 1.07 0.329 1.65 0.329 0.448 0 0.874-0.066 1.28-0.198 0.406-0.131 0.778-0.313 1.12-0.541" fill="#00aeef"/>
   </g>
  </g>
 </g>
</svg>
