<svg width="185" height="34.5" version="1.1" viewBox="0 0 184.556 34.485332" xmlns="http://www.w3.org/2000/svg">
 <defs>
  <clipPath id="clipPath18">
   <path d="m0 25.9h138v-25.9h-138z"/>
  </clipPath>
 </defs>
 <g transform="matrix(1.33 0 0 -1.33 0 34.5)">
  <g clip-path="url(#clipPath18)">
   <g transform="translate(22.8 24.9)">
    <path d="m0 0c1.34 0.74 3.32-0.26 3.33-1.84 0.232-1.33-0.985-2.65-2.33-2.54-1.26-0.06-2.34 1.09-2.3 2.33 0.013 0.861 0.522 1.68 1.29 2.06m-9.22-4.72c1 0.458 2.28-0.478 2-1.59-0.096-1.04-1.49-1.57-2.28-0.927-0.865 0.583-0.734 2.16 0.28 2.51m-6.74 5.57c1.54-0.341 2.43-1.66 2.39-3.16-0.015-0.563-0.166-1.12-0.505-1.58-0.934-1.48-3.21-1.82-4.53-0.665-1.06 0.801-1.35 2.24-0.96 3.47 0.438 1.37 2.03 2.29 3.6 1.94m-5.17-5.08c1.18 0.272 2.47-0.601 2.52-1.84 0.206-1.16-0.754-2.41-1.96-2.37-1.04-0.148-2.06 0.68-2.24 1.69-0.256 1.1 0.538 2.34 1.67 2.51m9.08 2.54c1.21 0.534 2.79-0.575 2.54-1.93 0.011-1.47-1.93-2.2-3-1.31-1.11 0.811-0.834 2.76 0.464 3.24m6.65 0.878c1.16 0.249 2.46-0.351 2.88-1.49 0.589-1.24-0.127-2.83-1.37-3.34-0.989-0.309-2.2-0.163-2.88 0.682-1.23 1.34-0.495 3.89 1.37 4.15m-8.89-4.41c1.66 0.581 3.63-0.644 3.79-2.4 0.284-1.69-1.23-3.41-2.95-3.26-1.36-0.032-2.64 1.04-2.8 2.4-0.26 1.38 0.59 2.87 1.96 3.27m-6.97 3.53c0.528 0 0.956-0.429 0.956-0.957s-0.428-0.956-0.956-0.956-0.957 0.428-0.957 0.956 0.429 0.957 0.957 0.957m8.59 1.72c0.415 0 0.751-0.336 0.751-0.751s-0.336-0.751-0.751-0.751c-0.414 0-0.75 0.336-0.75 0.751s0.336 0.751 0.75 0.751m10.4 0.89c0.582 0 1.05-0.472 1.05-1.05 0-0.583-0.472-1.06-1.05-1.06s-1.05 0.472-1.05 1.06c0 0.581 0.472 1.05 1.05 1.05m4.37-6.78c1.7 0 3.08-1.38 3.08-3.08 0-1.7-1.38-3.08-3.08-3.08-1.7 0-3.08 1.38-3.08 3.08 0 1.7 1.38 3.08 3.08 3.08m2.31 2.35c0.733 0 1.33-0.594 1.33-1.33s-0.595-1.33-1.33-1.33c-0.734 0-1.33 0.594-1.33 1.33s0.594 1.33 1.33 1.33m-8.68-2.48c-1.06 0-1.92-0.859-1.92-1.92 0-1.06 0.859-1.92 1.92-1.92 1.06 0 1.92 0.858 1.92 1.92 0 1.06-0.859 1.92-1.92 1.92m3.23 1.58c0.622 0 1.13-0.504 1.13-1.12 0-0.623-0.504-1.13-1.13-1.13-0.621 0-1.12 0.504-1.12 1.13 0 0.621 0.504 1.12 1.12 1.12m2.53-7.99c0.649 0 1.18-0.527 1.18-1.18 0-0.648-0.527-1.18-1.18-1.18s-1.18 0.528-1.18 1.18c0 0.649 0.527 1.18 1.18 1.18m-4.71 2.32c1.73 0 3.13-1.4 3.13-3.13s-1.4-3.13-3.13-3.13c-1.73 0-3.13 1.4-3.13 3.13s1.4 3.13 3.13 3.13m1.11-6.64c0.459 0 0.831-0.371 0.831-0.83 0-0.458-0.372-0.83-0.831-0.83-0.458 0-0.83 0.372-0.83 0.83 0 0.459 0.372 0.83 0.83 0.83m-8.32-3.89c0.458 0 0.83-0.371 0.83-0.83s-0.372-0.83-0.83-0.83c-0.459 0-0.831 0.371-0.831 0.83s0.372 0.83 0.831 0.83m1.97-2.05c0.632 0 1.14-0.512 1.14-1.14s-0.512-1.14-1.14-1.14-1.14 0.512-1.14 1.14 0.512 1.14 1.14 1.14m2.1 6.61c1.72 0 3.11-1.39 3.11-3.11s-1.39-3.11-3.11-3.11c-1.72 0-3.11 1.39-3.11 3.11s1.39 3.11 3.11 3.11m-14.7 6.64c0.539 0 0.975-0.437 0.975-0.975 0-0.54-0.436-0.976-0.975-0.976s-0.976 0.436-0.976 0.976c0 0.538 0.437 0.975 0.976 0.975m3 1.26c0.617 0 1.12-0.5 1.12-1.12s-0.5-1.12-1.12-1.12-1.12 0.5-1.12 1.12 0.501 1.12 1.12 1.12m0.65-2.94c1.16 0 2.11-0.944 2.11-2.11s-0.945-2.11-2.11-2.11-2.11 0.945-2.11 2.11 0.945 2.11 2.11 2.11m1.78-4.22c0.621 0 1.12-0.504 1.12-1.13 0-0.621-0.504-1.12-1.12-1.12-0.622 0-1.13 0.504-1.13 1.12 0 0.622 0.504 1.13 1.13 1.13m7.18 6.66c1.18 0 2.14-0.955 2.14-2.13s-0.955-2.14-2.14-2.14c-1.18 0-2.13 0.956-2.13 2.14s0.956 2.13 2.13 2.13m-3.79-7.44c1.18 0 2.13-0.955 2.13-2.13s-0.955-2.13-2.13-2.13-2.14 0.955-2.14 2.13 0.956 2.13 2.14 2.13m-0.48 4.38c1.05 0 1.9-0.852 1.9-1.9 0-1.05-0.851-1.9-1.9-1.9-1.05 0-1.9 0.851-1.9 1.9 0 1.05 0.851 1.9 1.9 1.9m3.77-1.81c0.784 0 1.42-0.636 1.42-1.42 0-0.783-0.636-1.42-1.42-1.42s-1.42 0.636-1.42 1.42c0 0.784 0.635 1.42 1.42 1.42" fill="#ed1c24"/>
   </g>
   <g transform="translate(36.3 20.4)">
    <path d="m0 0v-8.23h2.21v4.11h3.77v-4.11h2.21v9.2h-2.21v-3.43h-3.77v3.43h-1.25c-0.522 0.053-0.957-0.452-0.957-0.974m17.6-5.41h-1.7c-0.313 0-0.574-0.105-0.783-0.331-0.452-0.435-0.956-0.661-1.5-0.661-1.13 0-1.74 0.713-1.83 2.12h5.95c0.173 3.6-1.2 5.39-4.12 5.39-2.8-0.017-4.21-1.58-4.21-4.71s1.39-4.75 4.17-4.84c2.26 0 3.51 1.08 4.02 3.03m-4.02 4.62c0.992 0 1.57-0.626 1.7-1.84h-3.46c0.174 1.22 0.765 1.84 1.76 1.84m7.55-9.9c0-0.765-0.383-1.15-1.15-1.15h-1.16v8.8c0.122 2.75 1.55 4.1 4.31 4.1 2.85 0 4.28-1.55 4.28-4.64 0-3.13-1.22-4.75-3.67-4.84-1.15 0-2.02 0.47-2.61 1.43zm1.97 4.35c1.25 0 1.9 0.887 1.95 2.66 0 1.86-0.661 2.78-1.98 2.78s-1.95-0.922-1.93-2.78c0.07-1.77 0.714-2.66 1.97-2.66m12.9 0.887c0 1.24-0.487 1.84-1.39 2.21 0.695 0.365 1.11 0.94 1.11 1.9 0 1.62-1.15 2.35-2.89 2.31h-3.36c-0.522 0.053-0.957-0.417-0.957-0.939v-8.26h4.14c1.98 0 3.34 0.887 3.34 2.78m-2.31 3.74c0-0.679-0.522-0.887-1.18-0.852h-1.98v1.7h1.95c0.766 0.035 1.22-0.156 1.22-0.852m0.243-3.64c0.053-0.835-0.539-1.06-1.37-1.06h-2.04v2.16h2.02c0.87 0.036 1.44-0.226 1.39-1.1m7.29 6.45c-2.78 0-4.18-1.58-4.18-4.78 0-3.16 1.39-4.77 4.18-4.77s4.19 1.6 4.19 4.77c0 3.2-1.41 4.78-4.19 4.78m0-2.03c1.18 0 1.77-0.887 1.77-2.68-0.018-1.83-0.609-2.76-1.79-2.76-1.18 0-1.79 0.904-1.81 2.7 0 1.83 0.608 2.75 1.83 2.75m5.24-7.31h2.24v3.6c0 0.104 0.157 0.122 0.243 0.035l2.89-3.64h2.71l-4.18 5.2 1.72 2.1c0.209 0.174 0.418 0.26 0.626 0.208h1.01v1.69h-1.36c-0.887 0-1.29-0.156-1.7-0.574l-2-2.45v1.67c0.016 0.922-0.436 1.37-1.39 1.36h-0.817zm11.7 1.7c-0.696 0-1.1 0.348-1.17 1.08 0.017 0.678 0.487 1.11 1.39 1.29 0.678 0.139 1.3 0.331 1.84 0.557v-0.852c0-1.3-0.765-2.07-2.07-2.07m0.435 7.64c-2.12 0-3.32-0.835-3.6-2.54h2.31c0.14 0.452 0.591 0.662 1.39 0.643 0.956 0.019 1.44-0.243 1.5-0.782 0.018-0.47-0.469-0.783-1.5-0.922-2.36-0.226-3.88-0.8-3.98-3.03 0-2.02 1.53-3.06 3.74-2.89 2.5 0.174 4.02 1.3 4.02 3.84v3.13c-0.052 1.7-1.34 2.54-3.88 2.54m7.3-11.8c0-0.765-0.383-1.15-1.15-1.15h-1.16v8.8c0.121 2.75 1.55 4.1 4.31 4.1 2.85 0 4.28-1.55 4.28-4.64 0-3.13-1.22-4.75-3.67-4.84-1.15 0-2.02 0.47-2.61 1.43zm1.97 4.35c1.25 0 1.9 0.887 1.95 2.66 0 1.86-0.661 2.78-1.98 2.78-1.32 0-1.95-0.922-1.93-2.78 0.071-1.77 0.714-2.66 1.97-2.66m5.7-0.295h-0.574v-3.3h2.23v1.7h4.73v-1.7h2.21v3.3h-0.644v6.49c0.018 0.765-0.382 1.13-1.2 1.11h-5.43c0-3.27-0.208-5.32-1.32-7.6m3.39 5.56h2.31v-5.56h-3.43c0.139 0.313 0.279 0.765 0.435 1.34 0.365 1.36 0.679 2.56 0.679 4.23m15.4 0.679v-7.84h-2.21v5.13l-3.98-5.13h-2.33v9.2h2.21v-5.53l4.28 5.53h0.783c0.8 0 1.22-0.538 1.25-1.36m1.65 0.382v-8.23h2.21v4.11h3.77v-4.11h2.21v9.2h-2.21v-3.43h-3.77v3.43h-1.25c-0.522 0.053-0.957-0.452-0.957-0.974" fill="#fff"/>
   </g>
   <g transform="translate(41.8 .915)">
    <path d="m0 0v3.61c0.012 1.75-0.848 2.62-2.6 2.62-1.75 0-2.64-0.87-2.64-2.62v-3.61h1.57v3.93c0.012 0.638 0.36 0.951 1.04 0.951 0.686 0 1.03-0.313 1.07-0.951v-3.16c0-0.488 0.255-0.732 0.766-0.766zm6.12 1.88h-1.14c-0.209 0-0.383-0.069-0.522-0.22-0.302-0.291-0.639-0.442-0.999-0.442-0.755 0-1.16 0.476-1.22 1.42h3.97c0.116 2.4-0.802 3.6-2.75 3.6-1.87-0.011-2.81-1.06-2.81-3.15 0-2.09 0.93-3.17 2.79-3.23 1.51 0 2.35 0.721 2.68 2.02m-2.68 3.09c0.662 0 1.04-0.417 1.14-1.23h-2.31c0.116 0.814 0.511 1.23 1.17 1.23m3.5-4.97h1.57v3.19c0 0.895 0.43 1.35 1.29 1.35h0.522v1.6h-0.22c-2.06 0-3.11-0.988-3.16-2.97zm8.76 6.14c-0.383 0-0.639-0.187-0.755-0.547l-1.07-3.76-1.24 4.31h-1.71l2.16-6.14h1.64l2.17 6.14z" fill="#fff"/>
   </g>
   <g transform="translate(61.8 7.15)">
    <path d="m0 0c-1.86 0-2.79-1.06-2.79-3.19 0-2.11 0.929-3.18 2.79-3.18s2.8 1.07 2.8 3.18c0 2.14-0.941 3.19-2.8 3.19m0-1.36c0.79 0 1.18-0.592 1.18-1.79-0.012-1.22-0.407-1.85-1.2-1.85-0.79 0-1.2 0.604-1.21 1.8 0 1.22 0.407 1.84 1.22 1.84m8.97-3h-1.16c-0.198 0-0.371-0.069-0.523-0.22-0.256-0.291-0.569-0.443-0.928-0.443-0.86-0.011-1.29 0.605-1.29 1.82s0.407 1.84 1.22 1.84c0.488 0 0.814-0.22 0.999-0.638h1.68c-0.268 1.34-1.15 2-2.64 2-1.89-0.034-2.83-1.09-2.83-3.19 0.046-2.11 0.999-3.18 2.86-3.18 1.43-0.035 2.33 0.767 2.61 2.02m2.97-0.743c-0.487 0-0.743 0.232-0.778 0.72 0 0.452 0.315 0.743 0.93 0.858 0.453 0.094 0.871 0.222 1.23 0.373v-0.569c0-0.871-0.522-1.38-1.38-1.38m0.361 3.83c0.638 0 0.964-0.174 0.999-0.522 0-0.337-0.337-0.535-0.999-0.615-1.56-0.152-2.62-0.547-2.66-2.02 0-1.36 1.02-2.04 2.5-1.93 1.66 0.117 2.68 0.871 2.68 2.57v2.09c-0.035 1.14-0.894 1.7-2.59 1.7-1.42 0-2.22-0.557-2.4-1.7h1.54c0.082 0.289 0.384 0.429 0.93 0.429m3.26-4.97h1.57v3.19c0 0.895 0.43 1.35 1.29 1.35h0.523v1.6h-0.221c-2.06 0-3.11-0.987-3.16-2.97zm6.93 4.86c0.836 0 1.27-0.582 1.3-1.77 0-1.24-0.442-1.87-1.32-1.87-0.883 0-1.3 0.628-1.29 1.87 0.045 1.18 0.475 1.77 1.31 1.77m2.07 3.04h-0.766v-2.61c-0.396 0.64-0.987 0.953-1.75 0.953-1.64-0.058-2.45-1.13-2.45-3.22 0-2.04 0.953-3.08 2.86-3.11 1.92-0.012 2.88 0.905 2.88 2.75v4.46c0 0.418-0.349 0.778-0.767 0.778m1.46 0v-1.21h1.54v0.453c0.012 0.5-0.232 0.755-0.743 0.755zm0-1.75v-6.14h1.54v5.4c0 0.499-0.244 0.743-0.743 0.743zm7.65-6.14v3.61c0.011 1.75-0.848 2.62-2.6 2.62-1.75 0-2.64-0.871-2.64-2.62v-3.61h1.57v3.92c0.011 0.639 0.36 0.952 1.05 0.952 0.684 0 1.03-0.313 1.07-0.952v-3.16c0-0.488 0.255-0.732 0.767-0.766z" fill="#fff"/>
   </g>
  </g>
 </g>
</svg>
